<?xml version="1.0" standalone="no"?>
<!DOCTYPE svg PUBLIC "-//W3C//DTD SVG 20010904//EN"
 "http://www.w3.org/TR/2001/REC-SVG-20010904/DTD/svg10.dtd">
<svg version="1.0" xmlns="http://www.w3.org/2000/svg"
 width="512.000000pt" height="512.000000pt" viewBox="0 0 512.000000 512.000000"
 preserveAspectRatio="xMidYMid meet">
<g transform="translate(0.000000,512.000000) scale(0.100000,-0.100000)"
fill="#000000" stroke="none">
<path d="M2425 5100 c-74 -34 -175 -70 -195 -70 -11 0 -20 -4 -20 -10 0 -5 -7
-6 -17 -3 -11 4 -14 3 -9 -6 5 -8 3 -11 -5 -10 -8 2 -30 -4 -49 -13 -19 -8
-53 -18 -75 -22 -22 -4 -44 -11 -50 -16 -5 -4 -28 -13 -50 -20 -22 -7 -56 -20
-75 -28 -19 -9 -37 -16 -40 -17 -9 -1 -104 -36 -130 -48 -14 -6 -32 -12 -40
-13 -8 -2 -23 -7 -35 -12 -11 -5 -36 -15 -55 -22 -19 -6 -51 -18 -70 -26 -19
-7 -75 -28 -125 -47 l-90 -34 -7 -79 c-9 -106 6 -745 18 -765 5 -9 18 -223 16
-277 -1 -23 2 -41 6 -38 4 2 8 -10 8 -27 2 -34 30 -249 44 -332 23 -137 32
-175 54 -233 27 -68 26 -65 26 -88 0 -9 5 -12 11 -8 7 4 10 1 7 -7 -5 -16 137
-299 160 -316 9 -7 12 -13 8 -13 -4 0 6 -18 23 -39 17 -21 31 -42 31 -47 0 -4
17 -28 38 -53 21 -25 53 -68 71 -94 18 -27 36 -46 39 -42 3 3 18 -15 34 -40
15 -25 35 -45 44 -45 8 0 13 -3 10 -8 -8 -13 22 -45 35 -36 7 4 10 3 6 -3 -9
-14 151 -165 165 -157 6 4 8 2 5 -3 -4 -6 4 -18 18 -27 13 -9 35 -25 47 -37
41 -37 138 -110 138 -104 0 8 94 -56 98 -67 2 -4 8 -8 14 -8 5 0 22 -9 37 -19
14 -10 35 -20 46 -22 25 -3 75 11 75 21 0 4 18 15 40 25 22 10 47 26 56 36 10
11 21 19 25 19 4 0 20 11 35 25 15 14 31 25 37 25 9 0 40 25 119 96 14 13 29
24 32 24 3 0 26 20 52 45 25 25 51 45 57 45 5 0 8 3 5 6 -8 7 32 49 55 57 9 3
17 11 17 17 0 6 4 8 10 5 6 -3 7 1 4 9 -4 9 1 18 10 22 9 3 13 10 10 15 -3 5
1 9 9 9 17 0 49 34 40 43 -12 13 -25 7 -19 -9 3 -8 2 -13 -2 -10 -5 3 -49 -36
-98 -86 -74 -75 -145 -138 -287 -254 -36 -29 -201 -138 -236 -155 -35 -17 -36
-17 -81 9 -297 170 -613 466 -805 754 -32 48 -62 85 -68 81 -6 -3 -7 -1 -3 6
4 6 -5 33 -20 59 -49 82 -131 256 -153 322 -89 271 -141 750 -157 1461 l-7
296 74 26 c41 14 110 39 154 55 249 93 937 343 995 362 22 7 20 8 -15 9 -22 0
-58 -8 -80 -19z"/>
<path d="M2600 5111 c14 -5 70 -26 125 -46 55 -20 129 -47 165 -59 36 -13 166
-60 290 -106 245 -90 597 -218 619 -226 11 -4 13 -68 8 -397 -9 -627 -53
-1055 -137 -1332 -56 -183 -198 -433 -370 -648 -38 -48 -70 -90 -70 -92 0 -16
20 2 60 51 25 31 64 79 88 107 23 28 52 70 63 94 11 24 25 43 30 43 6 0 7 5 4
10 -3 6 -2 10 4 10 5 0 13 9 16 20 3 11 12 26 18 33 32 34 133 235 129 256 -2
7 1 10 6 7 6 -3 16 18 23 47 6 28 18 66 25 83 24 56 65 291 79 444 4 41 8 77
10 80 2 3 6 45 10 95 4 49 8 92 10 95 2 3 6 77 9 165 3 88 9 198 13 245 9 131
9 552 0 576 -7 16 -32 30 -91 49 -44 15 -85 31 -91 36 -5 5 -17 9 -27 9 -9 0
-32 8 -50 18 -32 17 -103 42 -143 49 -10 2 -22 7 -25 11 -3 4 -34 18 -70 30
-36 13 -101 37 -144 52 -44 16 -84 26 -90 23 -6 -3 -7 -2 -3 2 8 9 -115 57
-146 57 -9 -1 -15 3 -12 9 6 8 -16 14 -38 10 -4 -1 -18 5 -30 14 -12 8 -29 15
-39 15 -9 0 -32 6 -50 14 -18 8 -51 22 -73 32 -21 9 -60 18 -85 20 -36 3 -40
2 -20 -5z"/>
<path d="M2565 5035 c-16 -7 -35 -11 -42 -8 -7 3 -13 1 -13 -5 0 -6 -18 -13
-40 -17 -25 -4 -38 -11 -33 -18 4 -7 0 -8 -11 -4 -9 4 -27 0 -40 -8 -13 -9
-37 -17 -54 -18 -16 -1 -28 -5 -25 -9 4 -8 -12 -12 -36 -9 -8 2 -10 -2 -5 -10
5 -8 2 -11 -8 -6 -9 3 -25 -1 -36 -8 -10 -8 -22 -11 -26 -8 -3 3 -15 -2 -26
-12 -11 -10 -28 -15 -40 -12 -11 3 -18 2 -15 -3 3 -4 -2 -11 -11 -14 -8 -3
-12 -2 -9 4 3 6 -1 7 -9 4 -9 -3 -14 -9 -11 -14 2 -4 -12 -6 -32 -4 -26 2 -32
0 -23 -7 12 -7 12 -9 -3 -9 -10 0 -25 -7 -33 -15 -17 -17 -39 -21 -29 -5 3 6
-1 7 -9 4 -9 -3 -16 -9 -16 -13 0 -11 -50 -32 -61 -25 -5 3 -22 -4 -38 -15
-16 -12 -33 -21 -38 -21 -4 0 -1 5 7 11 20 14 8 9 -65 -24 -33 -16 -68 -29
-77 -30 -10 -1 -18 -5 -18 -9 0 -5 -9 -4 -20 2 -18 10 -24 7 -21 -12 0 -5 -1
-8 -3 -8 -2 0 -20 -7 -41 -16 -27 -11 -35 -12 -29 -2 4 7 -5 3 -20 -10 -16
-12 -33 -19 -38 -16 -5 3 -15 1 -22 -6 -13 -10 -46 -21 -73 -22 -7 -1 -10 -5
-7 -10 3 -5 9 -6 13 -3 5 2 7 -10 5 -28 -12 -118 -12 -131 -4 -107 4 15 7 -60
6 -178 0 -111 2 -202 6 -202 3 0 6 -30 5 -67 -1 -38 3 -105 7 -150 7 -63 6
-86 -4 -98 -7 -8 -10 -18 -6 -22 3 -3 6 -1 6 5 0 7 4 12 9 12 5 0 9 -24 9 -52
0 -29 3 -80 8 -113 4 -33 8 -82 8 -110 1 -27 4 -54 7 -60 4 -5 7 -31 7 -57 0
-25 3 -56 7 -68 5 -15 3 -20 -3 -16 -6 3 -14 1 -18 -5 -4 -7 -3 -9 4 -5 6 3
14 1 18 -5 8 -13 16 -69 16 -106 0 -13 4 -23 8 -23 5 0 6 -9 3 -20 -3 -11 0
-20 6 -20 6 0 11 -12 11 -26 0 -14 4 -33 9 -43 6 -10 11 -28 13 -42 2 -13 7
-29 10 -35 4 -6 12 -23 18 -38 8 -21 7 -26 -3 -21 -6 4 -5 1 3 -7 14 -12 19
-29 23 -70 1 -9 4 -15 8 -13 7 5 34 -46 30 -59 -1 -4 3 -14 9 -20 5 -7 6 -16
2 -20 -4 -4 -2 -7 3 -6 22 5 29 -1 15 -11 -13 -9 -13 -10 1 -6 12 4 17 -1 17
-19 0 -14 -5 -21 -11 -17 -6 3 -7 1 -3 -6 6 -9 12 -9 24 1 10 7 14 8 9 3 -4
-4 0 -16 8 -25 9 -10 15 -21 14 -26 -4 -21 2 -35 11 -29 6 3 10 -1 10 -9 0 -9
8 -16 18 -16 14 0 15 -2 2 -10 -13 -9 -7 -14 13 -11 4 0 7 -4 7 -11 0 -6 8
-20 17 -31 10 -11 13 -18 8 -14 -6 3 -11 -3 -11 -13 0 -13 4 -16 11 -10 14 11
35 -7 35 -29 0 -8 3 -12 6 -8 10 9 45 -33 42 -51 -2 -12 3 -16 16 -14 12 2 16
-1 10 -9 -4 -7 -3 -10 3 -6 11 7 36 -49 28 -62 -2 -4 2 -8 10 -8 11 0 12 5 4
20 -6 10 -8 21 -5 25 3 3 6 1 6 -5 0 -6 16 -27 36 -47 21 -21 33 -40 28 -47
-4 -7 -3 -9 2 -6 12 7 84 -57 84 -73 0 -6 6 -8 13 -5 6 4 4 0 -6 -8 -12 -10
-14 -17 -8 -22 6 -3 11 -1 11 4 0 22 42 3 60 -27 11 -18 25 -32 32 -32 9 0 8
3 -2 10 -8 5 -10 10 -5 10 6 0 21 -12 35 -27 14 -15 18 -23 10 -18 -9 5 -12 5
-7 -1 5 -5 12 -9 15 -9 15 0 32 -17 26 -26 -3 -5 -2 -9 3 -8 21 4 34 -2 27
-13 -4 -6 -3 -8 3 -5 6 4 18 -2 28 -13 10 -11 24 -20 31 -20 7 0 19 -9 27 -20
8 -11 18 -17 23 -12 4 4 2 -2 -6 -12 -8 -11 -10 -17 -3 -13 6 4 14 1 16 -5 4
-8 6 -7 6 4 1 13 11 8 41 -20 27 -23 39 -41 35 -51 -5 -13 -4 -13 6 -4 8 8 9
17 3 26 -5 7 -2 5 8 -5 9 -10 21 -18 28 -18 6 0 9 -4 6 -8 -3 -5 10 -8 29 -8
18 0 33 5 32 10 -1 5 4 11 12 14 10 3 11 0 5 -9 -7 -12 -5 -12 9 0 9 7 15 17
12 21 -3 4 10 15 29 24 19 9 36 23 40 31 3 8 12 12 21 9 8 -3 12 -11 8 -17 -3
-6 -1 -7 5 -3 6 4 8 14 5 24 -6 15 -5 15 11 3 9 -8 16 -10 14 -5 -2 5 5 20 15
34 9 13 17 20 17 15 0 -6 5 -2 11 7 5 9 16 15 23 12 18 -7 30 12 15 22 -8 4
-9 3 -5 -4 4 -7 2 -12 -4 -12 -7 0 -10 6 -7 13 2 6 11 11 20 11 9 -1 14 2 11
7 -3 5 4 9 16 9 12 0 19 4 16 9 -6 9 22 26 37 23 4 -1 6 4 5 10 -2 7 4 12 12
10 8 -2 12 -1 8 3 -12 12 30 48 47 41 9 -3 14 -2 10 3 -3 5 8 19 25 31 16 12
29 24 29 28 -4 24 3 34 18 28 10 -4 14 -4 10 0 -4 4 1 13 11 21 9 8 11 12 5 8
-22 -11 -14 4 8 16 17 9 20 8 14 -2 -5 -7 -4 -10 3 -5 5 3 13 0 16 -6 2 -7 4
-4 4 7 -2 42 3 53 27 59 14 4 25 11 25 17 0 7 -6 6 -17 -2 -13 -11 -13 -8 2
12 11 15 26 24 33 22 8 -4 10 0 5 13 -4 11 -3 15 5 10 6 -3 13 -2 17 4 4 6 10
8 14 6 4 -3 7 5 7 17 -1 12 4 21 11 20 7 -2 10 3 7 11 -3 8 0 17 7 22 8 5 10
3 4 -7 -5 -8 1 -5 13 5 12 11 20 21 17 24 -2 3 4 17 15 32 11 15 16 30 12 34
-4 4 -2 7 3 6 24 -5 34 1 28 17 -4 10 -2 14 4 10 6 -4 14 0 17 9 4 10 2 13 -7
9 -6 -4 2 6 18 20 17 15 24 24 16 20 -9 -5 -12 -3 -9 6 3 8 11 13 17 11 7 -1
10 2 6 7 -7 13 30 52 42 43 4 -4 3 0 -4 7 -10 11 -8 20 6 40 9 14 23 41 30 58
8 18 17 31 21 28 5 -3 6 5 3 17 -5 23 -5 23 11 3 17 -20 17 -20 7 2 -15 30
-14 36 4 29 9 -3 15 -1 14 7 -1 6 -1 23 1 37 1 23 2 24 11 5 8 -17 8 -16 4 7
-3 15 0 30 6 33 6 4 8 14 5 22 -5 11 -2 13 9 9 12 -4 14 -2 7 10 -9 15 5 75
21 90 10 11 8 26 -2 20 -5 -4 -7 3 -4 14 3 11 9 23 14 26 5 3 6 16 3 30 -4 14
-2 24 5 24 7 0 11 22 11 58 0 31 5 77 11 102 6 25 11 66 11 93 0 26 4 45 9 42
5 -4 6 8 2 26 -5 26 -3 30 8 24 11 -7 12 -6 2 6 -14 17 -7 110 9 143 7 13 7
16 -1 12 -6 -4 -11 0 -11 9 0 9 4 14 8 11 5 -3 7 29 4 71 -3 46 -1 74 5 70 5
-3 8 31 6 86 -2 51 0 87 4 80 5 -6 9 121 11 282 3 293 3 294 -20 315 -12 11
-28 18 -35 16 -6 -3 -23 4 -36 15 -16 11 -32 16 -43 12 -12 -4 -15 -3 -10 5 7
11 -18 17 -53 13 -8 -2 -10 2 -5 10 5 9 2 10 -9 6 -10 -3 -17 -2 -17 3 0 5 -8
6 -17 3 -16 -6 -17 -5 -3 12 14 17 13 18 -3 8 -18 -9 -105 12 -140 34 -6 4
-14 8 -17 9 -35 6 -59 18 -54 26 4 6 1 8 -7 6 -8 -3 -34 3 -57 14 -24 10 -49
15 -54 11 -6 -3 -8 -1 -5 4 4 6 -10 13 -35 17 -33 5 -39 9 -28 17 12 8 9 10
-12 6 -15 -2 -25 -1 -23 3 3 5 -2 11 -11 14 -24 9 -31 7 -14 -4 9 -6 10 -10 3
-10 -6 0 -14 4 -17 9 -4 5 -24 12 -46 16 -26 4 -38 11 -33 18 3 7 3 9 -2 5 -4
-4 -21 0 -37 8 -16 8 -34 12 -40 8 -7 -5 -8 -3 -3 6 6 10 3 12 -13 8 -12 -4
-22 -2 -22 4 0 5 -4 6 -10 3 -5 -3 -10 -2 -10 4 0 6 -6 8 -14 5 -8 -3 -17 -1
-21 5 -3 6 -16 11 -28 11 -12 0 -31 7 -41 15 -10 8 -23 12 -27 9 -5 -3 -9 2
-9 10 0 9 -5 16 -11 16 -5 0 -7 -5 -3 -12 5 -8 2 -9 -10 -5 -10 4 -22 7 -27 7
-5 0 -9 5 -9 11 0 5 5 7 12 3 7 -5 8 -3 4 5 -5 7 -10 10 -13 7 -3 -3 -13 -2
-22 3 -9 5 -28 3 -46 -4z m50 -13 c-3 -3 -11 0 -18 7 -9 10 -8 11 6 5 10 -3
15 -9 12 -12z m230 -102 c132 -48 382 -140 555 -203 173 -64 324 -119 334
-123 18 -7 19 -18 12 -273 -11 -425 -46 -883 -86 -1116 -27 -160 -64 -276
-124 -395 -187 -370 -455 -669 -860 -959 -116 -82 -83 -88 -266 47 -214 159
-425 354 -551 512 -161 200 -277 425 -335 648 -55 214 -103 735 -119 1308 -6
209 -6 222 12 228 10 4 216 80 458 168 242 89 499 183 570 209 72 26 137 46
145 43 8 -3 123 -46 255 -94z m495 -2484 c0 -3 -4 -8 -10 -11 -5 -3 -10 -1
-10 4 0 6 5 11 10 11 6 0 10 -2 10 -4z m-270 -299 c0 -2 -15 -14 -32 -27 l-33
-23 24 26 c21 23 41 35 41 24z"/>
<path d="M2035 4704 c-291 -107 -533 -198 -538 -203 -20 -20 25 -799 64 -1104
39 -308 57 -384 131 -531 176 -353 454 -665 797 -896 l90 -60 143 107 c325
243 590 553 744 868 86 176 123 365 159 815 21 261 40 789 29 800 -9 9 -1072
401 -1083 399 -3 0 -244 -88 -536 -195z m554 154 c10 -10 12 -10 7 -1 -5 9 1
10 26 1 18 -6 37 -15 43 -19 5 -5 17 -9 27 -9 10 0 18 -5 18 -11 0 -5 5 -7 10
-4 6 3 10 2 10 -3 0 -5 11 -7 25 -4 15 2 25 0 25 -7 0 -6 12 -11 26 -11 14 0
23 -4 20 -9 -4 -5 3 -7 14 -4 12 3 20 0 20 -7 0 -7 7 -10 16 -6 13 5 14 4 5
-7 -9 -12 -7 -13 13 -10 13 3 36 -3 52 -14 16 -10 25 -13 21 -6 -5 8 2 7 20
-2 15 -8 36 -15 47 -15 12 0 16 -5 12 -15 -4 -12 -2 -13 12 -7 16 9 78 -8 68
-19 -2 -2 9 -4 24 -5 16 -1 42 -9 57 -19 15 -11 38 -20 51 -21 13 -2 30 -8 37
-14 8 -7 18 -9 24 -6 5 3 11 1 13 -5 2 -6 16 -13 31 -14 16 -2 33 -8 40 -13 7
-6 21 -12 32 -14 11 -1 25 -10 32 -18 9 -11 12 -11 13 -2 0 10 7 9 30 -3 17
-9 30 -12 30 -8 0 5 4 3 8 -4 4 -6 20 -14 36 -17 16 -3 31 -7 34 -10 3 -3 4
-44 3 -91 -1 -47 1 -85 6 -85 4 0 8 -20 8 -44 0 -24 -3 -42 -6 -40 -4 2 -9
-16 -10 -40 -2 -24 0 -42 4 -39 9 6 3 -64 -6 -74 -4 -3 -7 -16 -6 -27 1 -18 2
-18 9 4 5 15 6 0 2 -35 -4 -33 -7 -93 -6 -132 0 -40 -2 -69 -6 -64 -3 5 -6
-25 -6 -67 -1 -68 -9 -158 -19 -232 -2 -14 -6 -47 -10 -75 -7 -51 -15 -151
-16 -194 -1 -19 -3 -21 -11 -10 -7 10 -8 2 -5 -27 3 -22 1 -48 -4 -57 -5 -8
-11 -28 -13 -44 -8 -55 -19 -93 -25 -89 -6 4 -10 -13 -11 -57 -1 -9 -5 -15
-10 -12 -6 4 -7 -2 -3 -11 5 -13 3 -16 -10 -11 -9 3 -17 2 -17 -3 0 -6 5 -10
10 -10 7 0 7 -6 1 -17 -12 -22 -45 -63 -35 -44 5 9 3 12 -5 7 -6 -4 -9 -12 -6
-17 5 -8 -39 -104 -55 -119 -3 -3 -10 -14 -17 -25 -6 -11 -16 -19 -22 -18 -6
2 -8 -5 -4 -15 6 -15 5 -15 -10 -3 -15 12 -17 12 -11 -4 6 -14 4 -16 -6 -10
-9 5 -11 4 -6 -4 4 -6 12 -9 17 -6 17 11 9 -4 -17 -30 -14 -14 -22 -30 -19
-35 8 -13 -8 -13 -21 0 -6 6 -10 0 -9 -18 0 -18 -5 -27 -15 -26 -9 1 -17 -8
-18 -20 0 -12 -10 -28 -22 -38 -11 -9 -20 -19 -20 -23 0 -10 -19 -31 -117
-130 -51 -51 -89 -95 -86 -99 4 -3 -7 -6 -23 -7 -25 0 -26 -2 -9 -8 19 -8 19
-8 -3 -15 -12 -4 -19 -12 -16 -18 4 -7 2 -8 -5 -4 -15 10 -43 -13 -34 -27 3
-5 1 -7 -4 -4 -6 4 -18 -2 -28 -13 -10 -11 -22 -17 -28 -13 -6 3 -7 1 -3 -5 3
-6 -7 -19 -24 -28 -16 -10 -30 -22 -30 -25 0 -4 -9 -11 -20 -14 -11 -4 -18
-10 -15 -15 3 -4 -5 -6 -17 -3 -19 4 -20 3 -8 -6 13 -10 8 -15 -12 -12 -5 0
-8 -3 -8 -9 0 -5 -6 -10 -14 -10 -8 0 -18 -9 -21 -20 -3 -11 -12 -20 -18 -21
-7 0 -21 -2 -31 -4 -24 -5 -59 13 -51 25 3 5 0 12 -6 16 -8 4 -9 3 -5 -4 10
-17 4 -15 -47 13 -25 14 -48 32 -51 40 -3 9 -17 20 -31 25 -14 5 -25 14 -25
20 0 6 -4 9 -8 6 -4 -2 -14 0 -22 6 -12 8 -12 9 3 4 9 -3 17 -1 17 4 0 6 -8
10 -18 10 -11 0 -27 9 -37 20 -10 11 -20 18 -22 16 -6 -6 -49 37 -45 47 1 4
-2 7 -8 7 -17 0 -80 62 -73 73 4 6 0 8 -9 5 -19 -8 -96 80 -92 105 2 13 -1 15
-9 8 -15 -12 -55 29 -51 53 1 9 -2 13 -7 10 -13 -7 -41 15 -33 27 3 5 0 9 -5
9 -6 0 -11 5 -11 11 0 6 -7 17 -16 26 -8 9 -13 22 -10 29 3 9 0 11 -11 7 -11
-4 -14 -2 -9 5 4 7 1 12 -8 12 -9 0 -16 5 -16 11 0 5 4 8 9 4 5 -3 13 0 17 6
5 8 3 9 -6 4 -10 -6 -12 -4 -7 9 6 14 3 15 -13 6 -11 -6 -21 -8 -21 -5 -1 3
-2 10 -3 15 0 6 -8 15 -16 20 -8 5 -11 10 -7 10 4 0 3 8 -2 18 -7 13 -6 23 2
31 9 10 8 11 -5 6 -10 -4 -18 -3 -18 2 0 6 -11 22 -25 37 -13 14 -19 26 -12
26 7 0 1 9 -12 19 -17 13 -22 25 -18 40 5 19 3 20 -11 9 -9 -7 -13 -8 -10 -3
4 6 -2 28 -12 50 -11 22 -19 46 -20 53 0 7 -5 10 -12 6 -6 -4 -8 -3 -4 4 3 6
2 13 -4 17 -5 3 -10 11 -10 16 0 6 4 7 10 4 6 -3 7 1 4 9 -3 9 -9 14 -13 12
-7 -5 -13 23 -14 66 0 15 -4 25 -8 22 -5 -3 -6 2 -3 11 4 8 1 22 -6 30 -6 8
-9 18 -6 24 3 5 1 22 -5 38 -6 15 -13 55 -15 88 -2 33 -6 80 -10 105 -3 25 -5
58 -5 73 1 16 -2 34 -6 40 -4 7 -8 30 -9 52 0 22 -4 55 -8 74 -7 27 -5 32 5
25 12 -6 12 -5 1 8 -7 9 -12 33 -11 55 1 21 -1 48 -5 61 -5 14 -3 29 6 39 7 9
8 14 2 10 -14 -8 -22 85 -30 343 -11 327 -13 295 18 294 23 0 25 2 15 15 -9
12 -6 12 16 -2 30 -20 35 -16 11 8 -15 15 -14 15 11 9 19 -5 26 -3 21 4 -4 6
2 9 16 6 13 -2 17 -1 9 2 -12 6 58 34 121 49 9 2 26 8 37 14 11 6 32 11 48 11
19 0 24 3 15 9 -11 7 -11 9 2 14 9 4 16 1 16 -6 0 -7 7 -3 15 7 10 13 15 15
15 6 0 -10 4 -10 18 2 26 23 46 33 38 20 -5 -8 -2 -10 8 -6 9 3 14 10 11 14
-3 5 4 6 15 3 11 -3 20 -1 20 5 0 15 60 34 60 19 0 -7 5 -4 11 6 5 9 21 17 34
17 14 0 25 4 25 9 0 11 48 25 78 22 12 -1 22 2 22 7 0 5 12 14 26 20 14 7 23
8 19 2 -3 -6 1 -7 9 -4 9 3 13 11 9 17 -3 6 -1 7 6 3 6 -4 24 -1 39 7 16 7 36
13 45 11 10 -1 15 1 12 6 -3 4 2 11 11 14 8 3 13 2 10 -2 -2 -4 4 -8 14 -8 10
0 16 6 13 12 -2 7 1 15 8 20 8 5 10 3 4 -7 -6 -11 -5 -11 5 -2 7 6 19 9 28 6
10 -4 13 -2 8 5 -4 8 -2 10 7 6 8 -3 18 -1 22 5 8 15 28 14 44 -1z m431 -2561
c0 -2 -10 -12 -22 -23 l-23 -19 19 23 c18 21 26 27 26 19z"/>
<path d="M3068 4673 c7 -3 16 -2 19 1 4 3 -2 6 -13 5 -11 0 -14 -3 -6 -6z"/>
<path d="M1890 4596 c0 -2 7 -7 16 -10 8 -3 12 -2 9 4 -6 10 -25 14 -25 6z"/>
<path d="M3310 4580 c8 -5 20 -10 25 -10 6 0 3 5 -5 10 -8 5 -19 10 -25 10 -5
0 -3 -5 5 -10z"/>
<path d="M1785 4570 c-3 -6 1 -7 9 -4 18 7 21 14 7 14 -6 0 -13 -4 -16 -10z"/>
<path d="M3508 4513 c6 -2 10 -9 7 -14 -4 -5 1 -6 10 -2 13 5 14 7 3 14 -7 5
-17 8 -23 8 -5 0 -4 -3 3 -6z"/>
<path d="M1620 4500 c-8 -5 -10 -10 -5 -10 6 0 17 5 25 10 8 5 11 10 5 10 -5
0 -17 -5 -25 -10z"/>
<path d="M2246 4075 c-10 -8 -23 -12 -27 -9 -5 3 -6 -2 -3 -10 4 -9 1 -16 -6
-16 -10 0 -10 -3 0 -15 7 -8 9 -15 4 -15 -5 0 -7 -59 -4 -131 3 -73 1 -133 -4
-137 -5 -3 -6 1 -1 8 5 8 4 11 -3 7 -5 -4 -8 -16 -5 -27 5 -19 -5 -26 -31 -21
-5 1 -3 -5 4 -14 11 -14 11 -16 0 -13 -8 2 -14 -1 -15 -7 0 -5 -7 -21 -14 -34
-19 -35 -1 -47 40 -25 24 12 31 13 22 3 -9 -11 -7 -14 12 -14 15 0 21 3 15 9
-12 12 -13 29 -2 22 5 -3 20 2 33 12 13 9 30 17 37 19 8 1 20 10 29 20 8 10
11 12 7 4 -5 -9 2 -8 19 5 15 10 27 23 27 27 0 5 5 5 10 2 6 -4 7 -12 4 -18
-4 -7 -3 -8 2 -4 5 5 9 12 9 15 0 13 16 32 27 32 6 0 5 -7 -3 -17 -7 -10 0 -6
16 8 22 20 39 26 65 25 42 -3 72 -15 64 -27 -3 -5 2 -6 10 -3 15 6 21 -6 17
-29 -1 -5 3 -6 9 -2 6 4 18 1 26 -6 8 -7 14 -8 12 -3 -2 5 2 9 7 9 6 0 9 -3 8
-6 -1 -4 18 -12 43 -18 31 -8 48 -18 51 -31 3 -11 11 -16 19 -13 8 3 14 -1 14
-8 0 -7 3 -9 7 -6 3 4 12 -1 20 -11 8 -9 12 -11 8 -5 -4 9 -1 11 9 7 9 -3 13
-10 10 -15 -3 -5 8 -12 25 -15 17 -4 28 -10 25 -15 -3 -5 -11 -6 -17 -3 -7 4
-9 4 -5 -1 9 -9 -9 -35 -24 -35 -6 0 -4 8 3 18 7 9 -5 1 -26 -18 -22 -19 -41
-38 -43 -43 -2 -4 -8 -5 -12 -2 -5 3 -12 0 -16 -6 -4 -8 -3 -9 4 -5 23 14 11
-13 -14 -33 -15 -12 -21 -21 -13 -21 12 0 12 -2 0 -9 -11 -7 -11 -9 0 -14 11
-3 9 -9 -6 -23 -12 -11 -27 -20 -35 -22 -8 -2 -23 -11 -32 -19 -10 -9 -26 -13
-38 -10 -17 4 -19 3 -10 -8 13 -15 4 -22 -27 -19 -12 0 -20 -3 -17 -7 5 -8
-12 -13 -43 -12 -7 0 -12 -2 -11 -6 2 -19 -4 -21 -19 -5 -10 9 -18 23 -19 31
-2 8 -5 18 -9 21 -3 4 -4 -5 -1 -20 3 -20 1 -25 -10 -21 -8 3 -12 8 -10 12 3
4 1 13 -5 21 -7 12 -9 12 -9 -3 0 -15 -2 -16 -14 -5 -13 11 -13 14 0 24 13 10
13 12 -1 18 -9 3 -14 2 -11 -3 3 -5 -1 -11 -9 -15 -8 -3 -15 -1 -15 4 0 6 -9
10 -20 10 -10 0 -31 12 -46 28 -15 15 -23 21 -20 15 4 -7 3 -13 -3 -13 -5 0
-14 6 -18 14 -10 19 -24 21 -34 5 -4 -7 -15 -14 -24 -15 -21 -3 -33 -14 -16
-14 10 0 12 -34 6 -165 -5 -120 -4 -165 4 -165 6 0 11 -5 11 -11 0 -6 -8 -8
-17 -5 -15 5 -14 3 2 -9 17 -14 18 -17 5 -26 -13 -9 -13 -10 1 -6 9 3 27 -2
40 -10 12 -9 19 -12 16 -6 -4 7 2 10 17 9 13 0 22 -5 19 -10 -3 -4 86 -6 199
-4 176 3 208 6 232 21 15 10 39 20 54 22 15 1 31 3 35 4 5 0 5 6 2 11 -5 9 23
15 47 11 5 0 7 2 5 7 -1 4 1 7 4 7 3 0 14 8 23 18 17 17 19 17 38 1 17 -16 18
-17 12 -1 -6 17 -17 21 -44 17 -8 -1 -13 0 -10 2 3 2 14 10 24 18 11 8 17 10
13 4 -3 -6 0 -11 8 -11 10 0 11 5 4 19 -7 13 -6 18 2 18 7 0 18 8 26 18 8 11
12 12 11 3 -3 -16 40 -23 49 -8 3 6 2 7 -4 4 -15 -9 -47 18 -39 32 5 7 15 10
23 6 12 -4 13 -2 5 8 -9 10 -7 19 4 36 9 12 13 25 10 28 -3 4 2 15 11 25 10
11 19 38 20 61 2 22 7 43 12 47 5 3 9 12 9 20 -4 56 3 120 12 115 6 -3 10 -2
10 4 0 5 -5 13 -11 17 -6 3 -8 15 -6 26 3 11 1 28 -6 38 -8 14 -8 25 1 46 7
14 10 29 7 32 -3 3 -5 -1 -6 -9 -1 -21 -37 63 -38 89 -1 12 -5 22 -9 22 -5 0
-8 14 -7 30 1 17 0 28 -3 25 -8 -8 -43 16 -36 26 3 5 0 17 -8 26 -7 9 -8 14
-2 10 6 -3 20 0 30 9 18 15 18 15 -1 6 -31 -13 -40 -10 -76 28 -19 19 -26 28
-16 20 15 -11 18 -11 15 1 -2 8 2 13 8 12 6 -1 11 5 11 13 0 13 -2 13 -15 0
-13 -13 -18 -13 -44 0 -18 9 -26 19 -21 27 4 7 -2 6 -13 -3 -10 -8 -16 -10
-11 -5 9 11 -41 45 -67 45 -13 0 -16 5 -11 18 5 14 4 15 -6 5 -15 -15 -43 -17
-34 -3 4 6 -7 10 -27 11 -18 0 -111 3 -205 5 -119 3 -179 1 -194 -7 -15 -8
-19 -8 -15 0 10 15 -7 14 -23 -1 -11 -10 -13 -10 -7 0 9 15 6 15 -18 -3z m261
-1 c-3 -3 -12 -4 -19 -1 -8 3 -5 6 6 6 11 1 17 -2 13 -5z m179 -23 c88 -14
151 -47 222 -117 101 -101 162 -256 162 -414 0 -207 -107 -407 -262 -491 l-63
-34 -252 -3 c-174 -2 -253 0 -253 7 -3 97 0 364 3 368 3 2 62 -28 132 -66 71
-39 132 -71 136 -71 15 0 263 140 271 153 5 7 7 30 6 51 l-2 39 82 46 c45 25
82 48 82 51 0 3 -33 23 -73 44 -39 21 -135 74 -213 117 -77 44 -145 79 -152
79 -12 0 -291 -151 -334 -181 -15 -10 -31 -19 -35 -19 -4 0 -3 4 2 8 6 4 29
29 50 56 l40 49 2 155 c1 86 4 161 6 166 6 15 363 20 443 7z m-166 -275 c-7
-7 -14 -6 -21 1 -9 9 -7 12 9 10 14 -1 18 -5 12 -11z m110 -51 c11 -13 10 -14
-4 -9 -9 3 -16 10 -16 15 0 13 6 11 20 -6z m133 -322 c-3 -7 -10 -10 -15 -7
-6 4 -5 10 3 15 11 7 11 9 1 9 -7 0 -10 5 -6 11 9 15 24 -9 17 -28z m-546
-265 c-2 -13 -4 -3 -4 22 0 25 2 35 4 23 2 -13 2 -33 0 -45z m436 -175 c-7 -2
-19 -2 -25 0 -7 3 -2 5 12 5 14 0 19 -2 13 -5z"/>
<path d="M2814 4056 c11 -9 24 -16 30 -16 12 0 7 5 -24 19 -24 11 -24 11 -6
-3z"/>
<path d="M1541 3984 c0 -11 3 -14 6 -6 3 7 2 16 -1 19 -3 4 -6 -2 -5 -13z"/>
<path d="M3060 3751 c0 -6 4 -13 10 -16 6 -3 7 1 4 9 -7 18 -14 21 -14 7z"/>
<path d="M2366 3692 c-3 -5 1 -9 9 -9 8 0 12 4 9 9 -3 4 -7 8 -9 8 -2 0 -6 -4
-9 -8z"/>
<path d="M2478 3663 c30 -12 3 -42 -44 -47 -6 -1 -19 -9 -28 -19 -10 -9 -22
-14 -28 -11 -7 4 -8 2 -4 -4 7 -12 -4 -16 -38 -12 -11 1 -16 -3 -11 -9 3 -6
-2 -14 -12 -18 -10 -3 -29 -15 -42 -25 -16 -12 -28 -15 -35 -9 -7 6 -17 6 -26
-1 -12 -8 -12 -9 2 -4 22 7 33 -10 12 -18 -9 -4 -24 -1 -33 6 -14 12 -15 11
-2 -5 13 -17 13 -18 -4 -15 -14 2 -20 -3 -20 -17 0 -12 -6 -20 -15 -19 -9 1
-16 -6 -17 -15 -1 -9 -10 -41 -22 -71 -11 -31 -21 -82 -22 -113 -1 -33 -8 -62
-16 -68 -20 -17 -17 -91 5 -110 17 -15 63 -12 92 6 15 9 9 103 -8 114 -6 4
-10 30 -8 61 5 82 44 169 69 153 7 -4 8 0 4 11 -5 14 -3 17 8 12 8 -3 15 -1
15 5 0 6 5 7 12 3 7 -4 8 -3 4 4 -9 15 28 34 41 21 8 -8 13 -7 18 2 5 8 4 10
-3 5 -7 -4 -12 -2 -12 4 0 8 10 10 28 6 16 -4 22 -3 14 2 -10 7 -10 11 2 21
10 8 16 9 21 1 3 -5 11 -10 17 -10 6 0 5 7 -3 17 -8 9 -9 14 -3 10 7 -4 17 0
24 9 7 8 19 13 26 10 8 -3 13 -2 13 2 -3 21 3 23 19 9 15 -14 19 -15 19 -2 0
8 -4 12 -9 9 -4 -3 -8 0 -8 5 0 10 23 16 45 11 6 -1 7 2 3 6 -4 4 0 12 8 19
12 8 15 20 9 43 -3 18 -11 32 -16 32 -6 0 -7 -4 -4 -10 3 -5 2 -10 -3 -10 -6
0 -12 7 -16 15 -3 8 -11 15 -18 14 -10 0 -10 -2 0 -6z m47 -42 c7 -13 -28 -36
-169 -112 -143 -77 -189 -118 -210 -190 -21 -70 -21 -145 0 -153 11 -4 14 -17
12 -48 -3 -42 -4 -43 -38 -43 -33 0 -35 2 -38 36 -2 23 3 42 12 52 11 11 16
35 16 75 0 74 22 140 63 186 26 29 310 201 339 205 4 1 9 -3 13 -8z"/>
<path d="M2727 3659 c7 -7 15 -10 18 -7 3 3 -2 9 -12 12 -14 6 -15 5 -6 -5z"/>
<path d="M3096 3625 c-9 -26 -7 -32 5 -12 6 10 9 21 6 23 -2 3 -7 -2 -11 -11z"/>
<path d="M2105 3399 c-4 -6 -5 -12 -2 -15 2 -3 7 2 10 11 7 17 1 20 -8 4z"/>
<path d="M2575 3331 c-3 -5 -2 -12 3 -15 5 -3 9 1 9 9 0 17 -3 19 -12 6z"/>
<path d="M3551 3314 c0 -11 3 -14 6 -6 3 7 2 16 -1 19 -3 4 -6 -2 -5 -13z"/>
<path d="M1740 2830 c0 -5 5 -10 11 -10 5 0 7 5 4 10 -3 6 -8 10 -11 10 -2 0
-4 -4 -4 -10z"/>
<path d="M1806 2785 c7 -18 6 -19 -12 -5 -18 14 -18 14 -5 -3 10 -12 17 -15
25 -7 7 7 6 14 -3 23 -10 10 -11 8 -5 -8z"/>
<path d="M3216 2613 c-6 -14 -5 -15 5 -6 7 7 10 15 7 18 -3 3 -9 -2 -12 -12z"/>
<path d="M1977 2543 c3 -7 6 -13 8 -13 2 0 5 6 8 13 3 8 -1 14 -8 14 -7 0 -11
-6 -8 -14z"/>
<path d="M2065 2381 c-3 -5 -2 -12 3 -15 5 -3 9 1 9 9 0 17 -3 19 -12 6z"/>
<path d="M3043 2355 c0 -8 4 -12 9 -9 5 3 6 10 3 15 -9 13 -12 11 -12 -6z"/>
<path d="M2716 2068 c3 -5 10 -6 15 -3 13 9 11 12 -6 12 -8 0 -12 -4 -9 -9z"/>
<path d="M3072 2274 c-7 -8 -8 -14 -3 -14 10 0 25 19 20 25 -2 1 -10 -3 -17
-11z"/>
<path d="M2327 2029 c7 -7 15 -10 18 -7 3 3 -2 9 -12 12 -14 6 -15 5 -6 -5z"/>
<path d="M2747 4989 c7 -7 15 -10 18 -7 3 3 -2 9 -12 12 -14 6 -15 5 -6 -5z"/>
<path d="M2786 4988 c3 -5 10 -6 15 -3 13 9 11 12 -6 12 -8 0 -12 -4 -9 -9z"/>
<path d="M2260 4956 c0 -2 7 -7 16 -10 8 -3 12 -2 9 4 -6 10 -25 14 -25 6z"/>
<path d="M3365 4770 c27 -12 43 -12 25 0 -8 5 -22 9 -30 9 -10 0 -8 -3 5 -9z"/>
<path d="M4017 3212 c-14 -16 -28 -58 -42 -124 -3 -16 -12 -28 -19 -28 -40 0
-54 -64 -28 -130 11 -29 5 -51 -12 -44 -18 7 -48 -50 -34 -64 7 -7 8 -12 2
-12 -5 0 -8 -20 -6 -45 3 -30 8 -43 16 -38 6 3 8 3 4 -2 -4 -4 -2 -15 5 -23
10 -13 9 -14 -10 -4 -41 23 -48 11 -12 -21 43 -37 59 -65 59 -102 l0 -27 31
26 c33 28 109 38 109 14 -1 -25 -55 -112 -83 -132 -26 -19 -30 -19 -69 -6 -61
22 -80 64 -75 163 5 98 -14 100 -27 3 -8 -55 -7 -69 5 -77 12 -7 12 -9 -1 -9
-13 0 -13 -1 0 -10 19 -12 8 -13 -23 -1 -18 7 -27 5 -38 -7 -21 -25 -39 -111
-34 -158 4 -32 2 -41 -9 -41 -8 0 -13 4 -10 8 2 4 -6 11 -18 15 -29 9 -65 -32
-73 -84 -4 -20 -10 -46 -14 -57 -4 -11 -7 -30 -6 -42 2 -28 -11 -30 -27 -3 -7
11 -20 20 -29 20 -18 0 -55 -37 -46 -46 3 -3 -4 -17 -16 -31 -22 -25 -36 -64
-42 -118 -2 -16 -4 -32 -5 -35 -1 -3 -2 -9 -1 -13 1 -5 -3 -6 -9 -2 -6 3 -8
10 -5 15 8 12 -6 41 -16 34 -5 -3 -9 -1 -9 4 0 5 -9 12 -20 15 -11 3 -18 1
-14 -4 3 -5 -1 -9 -9 -9 -21 0 -51 -39 -86 -111 -26 -53 -32 -76 -28 -110 8
-73 66 -189 95 -189 6 0 12 -5 12 -11 0 -6 9 -8 21 -4 12 4 19 3 16 -2 -9 -15
56 -6 98 14 58 27 85 46 85 60 0 7 5 13 10 13 19 0 10 22 -22 53 -18 17 -27
27 -20 23 6 -4 12 -3 12 3 0 6 -19 15 -42 22 -24 6 -48 15 -54 20 -6 5 -14 5
-19 1 -4 -4 -4 13 0 38 4 25 7 53 7 62 0 10 4 21 10 24 6 4 8 3 5 -3 -8 -12
23 -77 55 -117 19 -23 34 -29 75 -33 30 -2 54 0 58 7 3 5 15 10 26 10 11 0 22
7 25 15 4 8 10 13 14 10 5 -3 15 3 22 13 7 10 24 26 38 35 13 9 21 17 17 17
-4 0 -3 10 4 21 9 18 8 24 -5 31 -9 5 -14 13 -11 18 3 4 -7 11 -21 14 -22 6
-24 9 -13 22 7 8 18 13 26 10 7 -3 13 -1 13 3 0 5 10 7 22 3 14 -3 19 -2 14 6
-4 7 -1 12 8 12 39 0 123 110 110 144 -9 23 -86 56 -121 52 -28 -3 -32 0 -37
27 -4 18 -1 35 5 41 9 8 10 8 5 -1 -4 -8 -1 -13 7 -13 8 0 22 -10 31 -22 9
-13 14 -17 10 -9 -5 9 1 8 19 -3 24 -16 83 -13 72 4 -2 4 6 13 20 20 27 15 87
94 78 104 -3 3 -1 6 6 6 7 0 10 4 7 9 -4 5 0 12 6 14 10 4 10 6 0 6 -7 1 -11
5 -8 10 3 5 -2 15 -11 22 -14 12 -16 12 -8 -1 7 -12 5 -12 -11 1 -17 14 -64
18 -103 7 -7 -2 -15 7 -17 20 -5 26 -5 26 34 6 25 -12 39 -13 72 -4 22 6 38
15 35 19 -3 5 2 11 10 14 19 8 65 100 65 129 0 13 -12 31 -25 41 -14 10 -25
13 -25 7 0 -5 -6 -10 -12 -10 -7 1 1 13 18 28 70 62 101 145 65 181 -9 9 -23
15 -29 13 -6 -2 4 20 23 48 47 70 49 123 5 148 -24 13 -29 22 -25 40 8 31 -23
126 -45 140 -14 8 -21 7 -33 -6z m42 -51 c21 -73 8 -161 -24 -161 -24 0 -38
49 -30 105 4 28 8 59 9 71 2 36 32 26 45 -15z m-68 -150 c16 -16 29 -38 29
-47 0 -14 6 -11 28 14 15 17 40 34 55 38 28 6 28 6 21 -32 -15 -83 -45 -117
-100 -112 -50 4 -76 40 -82 113 -5 64 5 70 49 26z m-18 -191 c10 -15 17 -35
17 -44 0 -20 16 -21 24 -1 7 20 70 49 90 42 14 -5 14 -11 -1 -54 -29 -88 -65
-113 -128 -88 -51 19 -65 48 -65 136 0 58 0 58 23 48 13 -6 31 -23 40 -39z
m53 21 c-4 -5 -1 -11 6 -13 7 -3 3 -7 -9 -10 -23 -6 -28 10 -8 24 14 10 17 10
11 -1z m-16 -212 c0 -8 -15 -12 -23 -6 -2 1 -10 -3 -18 -10 -11 -9 -14 -7 -14
11 0 18 5 21 28 18 15 -2 27 -8 27 -13z m-192 -151 c26 -28 42 -70 42 -109 l0
-29 33 20 c36 22 63 25 102 10 l26 -10 -23 -41 c-27 -48 -91 -109 -115 -109
-26 0 -93 50 -109 81 -8 16 -14 49 -14 74 0 51 18 135 29 135 4 0 17 -10 29
-22z m-82 -234 c11 -30 15 -57 10 -84 l-6 -41 29 16 c38 19 84 19 122 -1 30
-15 30 -16 13 -42 -39 -62 -107 -112 -152 -112 -30 0 -109 91 -118 135 -7 40
5 110 31 171 15 36 16 36 35 19 10 -9 27 -37 36 -61z m-156 -146 c22 -52 24
-125 5 -172 -7 -16 -6 -17 13 -7 45 24 128 7 162 -34 11 -14 8 -21 -21 -51
-40 -41 -104 -74 -145 -74 -36 0 -71 34 -104 99 -33 66 -29 127 14 217 19 41
39 74 44 74 5 0 20 -23 32 -52z m55 -47 c-3 -6 4 -15 15 -21 11 -6 18 -15 15
-19 -2 -5 5 -11 17 -14 12 -4 19 -10 15 -14 -4 -4 3 -13 15 -20 20 -11 16 -12
-32 -7 -30 4 -56 8 -57 9 -2 1 1 16 6 33 6 20 6 34 0 38 -9 5 -3 24 7 24 3 0
3 -4 -1 -9z m-230 -133 c17 -59 12 -102 -17 -163 -11 -22 -14 -34 -7 -27 19
18 69 15 109 -7 40 -21 75 -64 65 -80 -13 -22 -107 -62 -146 -63 -54 -1 -87
24 -115 88 -29 67 -31 136 -5 187 26 50 84 126 93 121 4 -3 14 -28 23 -56z"/>
<path d="M4063 2963 c4 -6 2 -13 -5 -15 -8 -3 -6 -7 5 -11 23 -9 30 8 10 24
-9 8 -14 9 -10 2z"/>
<path d="M4014 2733 c3 -6 2 -14 -4 -18 -12 -7 -4 -25 11 -25 11 0 7 36 -6 47
-4 5 -5 3 -1 -4z"/>
<path d="M3960 2726 c0 -2 8 -10 18 -17 15 -13 16 -12 3 4 -13 16 -21 21 -21
13z"/>
<path d="M3964 2342 c3 -5 0 -13 -6 -15 -9 -4 -10 -6 -1 -6 17 -1 25 16 12 25
-7 4 -9 3 -5 -4z"/>
<path d="M3807 2315 c-4 -8 -2 -17 4 -20 5 -4 6 -11 3 -17 -5 -7 -2 -8 5 -3 9
5 9 11 3 17 -6 6 -8 17 -5 24 3 8 3 14 0 14 -3 0 -7 -7 -10 -15z"/>
<path d="M3950 2300 c-9 -6 -10 -10 -3 -10 6 0 15 5 18 10 8 12 4 12 -15 0z"/>
<path d="M3670 2139 c0 -5 5 -7 12 -3 8 5 9 1 4 -12 -5 -14 -4 -16 5 -7 6 6 8
16 5 22 -9 14 -26 14 -26 0z"/>
<path d="M3749 2103 c-13 -16 -12 -17 4 -4 16 13 21 21 13 21 -2 0 -10 -8 -17
-17z"/>
<path d="M3715 2090 c21 -24 26 -25 19 -6 -3 8 -13 17 -22 21 -13 5 -13 2 3
-15z"/>
<path d="M3725 2052 c3 -3 1 -10 -5 -16 -6 -8 -2 -12 13 -13 12 0 16 1 9 4 -9
3 -10 9 -3 17 8 9 6 13 -4 13 -8 0 -13 -3 -10 -5z"/>
<path d="M3776 2022 c-2 -4 4 -8 14 -8 10 0 16 4 14 8 -3 4 -9 8 -14 8 -5 0
-11 -4 -14 -8z"/>
<path d="M3694 1866 c1 -8 5 -18 8 -22 4 -3 5 1 4 10 -1 8 -5 18 -8 22 -4 3
-5 -1 -4 -10z"/>
<path d="M3580 1830 c-9 -6 -10 -10 -3 -10 6 0 15 5 18 10 8 12 4 12 -15 0z"/>
<path d="M3590 1796 c0 -2 7 -7 16 -10 8 -3 12 -2 9 4 -6 10 -25 14 -25 6z"/>
<path d="M3330 1852 c0 -5 7 -9 15 -9 8 0 12 4 9 9 -3 4 -9 8 -15 8 -5 0 -9
-4 -9 -8z"/>
<path d="M3371 1697 c-8 -10 -7 -14 2 -14 8 0 14 6 14 14 0 7 -1 13 -2 13 -2
0 -8 -6 -14 -13z"/>
<path d="M1067 3208 c-23 -18 -37 -61 -37 -114 0 -30 -4 -44 -13 -44 -37 0
-67 -97 -36 -115 6 -4 8 -13 5 -21 -3 -8 7 -23 24 -36 l30 -21 -29 -18 c-31
-19 -33 -32 -13 -95 14 -44 35 -74 52 -74 11 0 12 -2 3 -8 -8 -5 -2 -12 18
-21 17 -7 28 -16 25 -19 -3 -2 -11 0 -18 6 -16 13 -58 -18 -58 -42 0 -29 33
-101 56 -122 13 -12 20 -24 17 -28 -4 -4 1 -4 11 0 15 6 17 4 11 -7 -4 -8 -5
-11 0 -7 4 4 14 3 20 -2 8 -7 21 -7 38 -1 18 7 27 7 31 -2 2 -7 5 -4 5 6 1 9
7 17 15 17 22 0 30 -19 12 -26 -9 -3 -13 -11 -9 -17 4 -6 1 -7 -8 -1 -23 14
-93 10 -107 -6 -12 -13 -13 -13 -6 0 5 10 4 12 -4 5 -15 -14 -23 -65 -11 -65
6 0 8 -4 5 -9 -3 -5 6 -21 19 -35 14 -15 23 -32 20 -37 -4 -5 -2 -9 4 -9 6 0
21 -11 34 -24 38 -38 63 -41 105 -14 63 42 72 42 70 3 -1 -19 -2 -35 -2 -35
-1 0 -16 4 -34 9 -19 6 -32 6 -32 1 0 -5 -6 -7 -12 -5 -16 6 -77 -30 -85 -51
-8 -21 14 -67 29 -58 6 4 8 3 4 -4 -3 -6 -2 -13 4 -17 6 -4 7 -11 4 -17 -4 -7
-2 -8 4 -4 7 4 12 2 12 -4 0 -6 5 -8 10 -5 6 3 10 -1 10 -10 0 -11 5 -15 16
-11 8 3 12 2 9 -4 -3 -6 0 -10 9 -10 8 0 16 -4 18 -10 2 -5 20 -11 40 -12 21
-2 38 -6 38 -10 0 -8 -16 -12 -32 -9 -5 0 -7 -2 -6 -7 1 -4 -4 -18 -12 -32
-18 -32 -21 -50 -7 -50 5 0 7 -3 4 -7 -4 -3 8 -17 26 -30 17 -13 31 -27 29
-30 -5 -9 90 -53 116 -53 12 0 34 7 48 16 13 9 27 14 31 11 7 -8 35 27 67 82
l23 41 1 -35 c1 -19 6 -44 12 -55 10 -19 4 -25 -22 -21 -5 0 -8 -4 -8 -9 0 -6
-6 -10 -12 -9 -25 4 -77 -23 -93 -48 -26 -40 -4 -110 38 -117 6 -1 26 -9 42
-18 32 -17 122 -21 131 -6 3 4 10 8 15 8 6 0 7 -4 4 -10 -10 -16 1 -11 16 7
12 15 12 16 -1 8 -8 -5 -3 4 12 19 15 16 30 38 33 50 4 11 13 36 22 54 9 21
13 50 10 75 -7 59 -10 68 -35 110 -12 21 -22 41 -22 44 0 8 -58 60 -74 66 -19
8 -45 -13 -49 -40 -2 -12 -6 -25 -10 -29 -3 -4 -5 2 -3 12 2 11 -2 37 -9 58
-8 21 -11 45 -8 54 5 11 3 13 -7 7 -10 -6 -12 -4 -7 8 3 10 3 17 -2 17 -4 0
-14 12 -21 28 -32 64 -64 79 -88 42 -14 -22 -34 -27 -31 -7 4 25 -14 117 -23
117 -5 0 -7 4 -3 9 3 5 0 21 -7 35 -14 33 -52 44 -73 22 -24 -23 -27 -20 -20
21 7 44 -12 141 -30 160 -17 16 -47 17 -65 1 -12 -11 -12 -10 -2 3 14 19 9
164 -7 183 -12 14 -39 15 -60 2 -9 -6 -8 1 4 23 9 17 13 36 10 41 -3 6 -2 10
2 10 12 0 7 69 -8 96 -7 13 -19 23 -28 22 -20 -4 -22 20 -4 49 29 49 6 123
-39 123 -11 0 -17 16 -22 62 -3 35 -13 69 -23 80 -19 21 -24 22 -46 6z m45
-80 c9 -44 9 -65 -1 -97 -14 -49 -25 -51 -47 -9 -18 34 -15 100 5 152 15 38
28 25 43 -46z m65 -145 c-16 -156 -154 -156 -182 1 -6 38 -6 38 22 32 15 -4
40 -21 56 -38 21 -25 27 -28 27 -14 0 20 52 76 71 76 8 0 10 -16 6 -57z m38
-210 c-8 -55 -46 -100 -92 -109 -29 -5 -39 -2 -60 19 -14 13 -34 49 -44 78
-17 53 -17 54 1 57 23 4 79 -24 87 -44 8 -21 23 -17 23 7 0 12 17 37 37 58
l36 36 9 -30 c5 -16 6 -49 3 -72z m-92 64 c-2 -4 -3 -11 -3 -17 0 -5 -6 -7
-13 -4 -19 7 -17 32 2 29 9 -1 15 -5 14 -8z m146 -248 c1 -76 -19 -112 -75
-135 -55 -23 -105 11 -140 95 -20 48 -18 51 25 51 28 0 49 -8 70 -26 l31 -26
0 27 c0 34 24 80 52 99 21 15 23 15 30 -1 3 -10 7 -48 7 -84z m-101 41 c-15
-24 -19 -24 -44 -4 -10 8 -14 13 -7 10 6 -3 22 -2 35 3 12 6 24 10 26 10 1 1
-3 -8 -10 -19z m181 -174 c14 -56 14 -141 0 -167 -14 -26 -87 -79 -110 -79
-26 0 -89 59 -117 109 l-23 41 26 10 c14 6 35 10 47 10 22 0 78 -30 78 -42 0
-4 4 -8 9 -8 5 0 7 9 4 20 -9 33 6 88 33 120 14 16 29 30 34 30 4 0 13 -20 19
-44z m115 -194 c9 -26 18 -72 22 -102 6 -53 5 -57 -37 -113 -65 -88 -98 -88
-191 1 -32 30 -58 59 -58 63 0 14 57 39 90 39 17 0 44 -7 60 -15 l28 -14 -5
38 c-6 45 9 98 38 135 26 33 34 28 53 -32z m146 -172 c17 -33 35 -83 41 -111
10 -48 9 -54 -20 -114 -51 -104 -94 -125 -176 -85 -48 23 -107 78 -102 94 2 6
18 21 37 34 36 24 98 29 132 11 19 -10 20 -9 13 7 -19 47 -17 120 5 172 12 29
26 52 31 52 5 0 22 -27 39 -60z m-115 -102 c0 -31 -2 -33 -35 -31 -62 2 -66 4
-42 13 12 5 22 12 22 15 0 4 -5 3 -12 -1 -7 -4 -8 -3 -4 4 4 7 16 12 27 12 11
0 17 5 14 10 -3 6 -1 10 5 10 6 0 8 5 4 13 -6 9 -5 9 7 0 8 -6 14 -26 14 -45z
m282 -52 c74 -94 89 -164 53 -257 -28 -76 -54 -99 -109 -99 -47 0 -142 37
-156 60 -21 34 76 103 138 98 20 -2 37 -2 37 0 0 2 -7 17 -16 34 -9 17 -17 52
-17 77 -1 50 19 121 33 121 5 0 22 -15 37 -34z m-177 -209 c0 -2 -12 -14 -27
-28 l-28 -24 24 28 c23 25 31 32 31 24z"/>
<path d="M1126 2967 c3 -10 9 -15 12 -12 3 3 0 11 -7 18 -10 9 -11 8 -5 -6z"/>
<path d="M1080 2899 c0 -5 5 -7 10 -4 6 3 10 8 10 11 0 2 -4 4 -10 4 -5 0 -10
-5 -10 -11z"/>
<path d="M1063 2735 c0 -8 4 -12 9 -9 5 3 6 10 3 15 -9 13 -12 11 -12 -6z"/>
<path d="M1090 2711 c0 -6 4 -13 10 -16 6 -3 7 1 4 9 -7 18 -14 21 -14 7z"/>
<path d="M1156 2527 c3 -10 9 -15 12 -12 3 3 0 11 -7 18 -10 9 -11 8 -5 -6z"/>
<path d="M1183 2504 c-3 -9 -12 -13 -22 -9 -13 5 -14 4 -3 -7 11 -11 16 -10
26 4 10 14 15 15 26 5 12 -10 12 -9 1 6 -16 21 -20 21 -28 1z"/>
<path d="M1295 2419 c-4 -6 -5 -12 -2 -15 2 -3 7 2 10 11 7 17 1 20 -8 4z"/>
<path d="M1296 2301 c-13 -14 -14 -21 -5 -27 7 -4 10 -3 6 3 -8 13 17 36 28
25 5 -4 5 -1 1 6 -9 16 -10 15 -30 -7z"/>
<path d="M1400 2125 c-7 -8 -9 -15 -5 -15 4 0 1 -8 -6 -17 -13 -17 -13 -17 7
0 11 9 21 24 21 32 0 19 -2 19 -17 0z"/>
<path d="M1240 2123 c0 -6 8 -17 18 -24 16 -13 16 -13 2 6 -8 11 -16 22 -17
24 -2 2 -3 0 -3 -6z"/>
<path d="M1397 2065 c-11 -16 -23 -22 -35 -18 -18 7 -17 5 12 -17 11 -8 17
-10 13 -4 -8 13 26 47 37 37 4 -4 4 0 0 10 -8 21 -5 21 -27 -8z"/>
<path d="M1300 2060 c8 -5 20 -10 25 -10 6 0 3 5 -5 10 -8 5 -19 10 -25 10 -5
0 -3 -5 5 -10z"/>
<path d="M1576 1933 c-6 -14 -5 -15 5 -6 7 7 10 15 7 18 -3 3 -9 -2 -12 -12z"/>
<path d="M1416 1873 c-6 -14 -5 -15 5 -6 7 7 10 15 7 18 -3 3 -9 -2 -12 -12z"/>
<path d="M1520 1841 c0 -6 4 -13 10 -16 6 -3 7 1 4 9 -7 18 -14 21 -14 7z"/>
<path d="M1487 1793 c-3 -5 6 -9 20 -10 19 -1 22 1 12 8 -17 11 -26 11 -32 2z"/>
<path d="M1785 1859 c-4 -6 -4 -13 -1 -16 3 -4 6 -1 6 6 0 7 5 9 12 5 7 -4 8
-3 4 4 -9 15 -13 15 -21 1z"/>
<path d="M1741 1833 c-1 -6 -4 -20 -7 -30 -5 -17 -5 -17 6 0 6 10 9 23 6 30
-3 9 -5 9 -5 0z"/>
<path d="M1725 1701 c-3 -5 -2 -12 3 -15 5 -3 9 1 9 9 0 17 -3 19 -12 6z"/>
<path d="M1773 1678 c1 -15 6 -23 11 -18 4 4 4 16 -2 26 -9 16 -10 14 -9 -8z"/>
<path d="M1620 1660 c-9 -6 -10 -10 -3 -10 6 0 15 5 18 10 8 12 4 12 -15 0z"/>
<path d="M1645 1650 c-3 -6 1 -7 9 -4 18 7 21 14 7 14 -6 0 -13 -4 -16 -10z"/>
<path d="M1646 1622 c-2 -4 4 -8 14 -8 10 0 16 4 14 8 -3 4 -9 8 -14 8 -5 0
-11 -4 -14 -8z"/>
<path d="M1696 2533 c-6 -14 -5 -15 5 -6 7 7 10 15 7 18 -3 3 -9 -2 -12 -12z"/>
<path d="M3968 2526 c-15 -21 -15 -23 3 -34 26 -17 37 -15 14 2 -17 12 -17 16
-6 30 8 9 12 18 10 20 -2 2 -11 -6 -21 -18z"/>
<path d="M1706 2491 c8 -8 43 -8 38 0 -2 4 -13 7 -24 6 -10 -1 -17 -3 -14 -6z"/>
<path d="M1795 2421 c-3 -5 -2 -12 3 -15 5 -3 9 1 9 9 0 17 -3 19 -12 6z"/>
<path d="M2163 2015 c0 -8 4 -12 9 -9 5 3 6 10 3 15 -9 13 -12 11 -12 -6z"/>
<path d="M2243 1945 c0 -8 4 -12 9 -9 5 3 6 10 3 15 -9 13 -12 11 -12 -6z"/>
<path d="M2365 1820 c-4 -6 1 -7 11 -3 13 5 15 3 9 -7 -5 -9 -4 -11 4 -6 6 4
9 12 6 17 -8 12 -22 12 -30 -1z"/>
<path d="M2082 1743 c-6 -16 -14 -40 -18 -56 -8 -34 -19 -41 -61 -39 -18 2
-33 -2 -33 -8 0 -5 22 -10 49 -10 l50 0 12 58 c7 31 19 63 27 70 14 11 14 12
0 12 -9 0 -20 -12 -26 -27z"/>
<path d="M2983 1713 c-19 -57 -20 -58 -61 -61 -23 -2 -42 -8 -42 -13 0 -6 22
-9 52 -7 l52 3 14 62 c11 48 18 60 30 55 10 -3 13 -1 8 6 -16 26 -35 10 -53
-45z"/>
<path d="M2450 1746 c7 -7 13 -7 20 0 6 6 3 10 -10 10 -13 0 -16 -4 -10 -10z"/>
<path d="M2110 1743 c1 -5 7 -30 14 -58 l13 -50 54 -3 c39 -2 50 0 39 8 -8 5
-27 10 -42 10 -18 0 -31 8 -39 23 -7 12 -12 23 -11 25 1 1 1 4 1 7 -1 3 -3 10
-4 15 -1 6 -3 15 -4 20 -1 11 -21 14 -21 3z"/>
<path d="M3030 1729 c0 -5 5 -30 11 -55 l11 -44 61 0 60 0 -47 -41 c-51 -45
-53 -54 -30 -123 9 -26 14 -50 10 -53 -3 -3 -24 13 -47 36 l-41 43 -25 -24
c-58 -52 -72 -68 -60 -68 7 0 26 13 42 29 25 23 34 27 55 19 14 -5 32 -18 41
-30 20 -26 49 -18 49 14 0 13 -5 40 -9 62 -11 47 -7 59 25 76 13 7 24 19 24
26 0 7 6 14 13 17 27 9 -15 36 -61 39 -46 3 -47 4 -56 46 -9 37 -26 59 -26 31z"/>
<path d="M1948 1613 c6 -2 12 -9 12 -14 0 -5 14 -22 30 -37 28 -25 30 -30 20
-62 -12 -42 -13 -97 -2 -104 4 -2 28 11 51 30 47 36 46 36 98 -9 44 -38 37
-11 -8 30 l-46 43 -48 -48 c-53 -52 -53 -52 -24 52 l14 48 -44 39 c-24 22 -49
39 -55 38 -7 0 -6 -3 2 -6z"/>
<path d="M2209 1584 c-24 -20 -45 -37 -46 -38 -5 -5 29 -111 39 -121 9 -10 3
27 -12 70 -10 29 -2 46 38 82 51 45 34 51 -19 7z"/>
<path d="M2870 1610 c0 -7 13 -24 29 -39 30 -28 34 -58 16 -125 -5 -19 -4 -27
3 -23 8 6 36 94 37 117 0 3 -19 23 -42 44 -24 21 -43 33 -43 26z"/>
<path d="M2529 1568 c-2 -36 -28 -126 -38 -132 -4 -3 -34 -6 -65 -7 -70 -3
-88 -19 -60 -56 11 -14 22 -24 25 -22 4 2 18 -11 33 -29 16 -18 33 -29 39 -25
8 4 7 1 -1 -9 -7 -9 -12 -20 -11 -24 1 -5 0 -16 -4 -24 -8 -21 -19 -71 -23
-100 -3 -24 -2 -24 12 -6 8 11 14 26 14 35 0 8 8 39 17 69 l17 54 -64 59 -65
58 80 1 80 0 18 78 c9 42 17 80 17 85 0 12 -20 8 -21 -5z"/>
<path d="M2570 1574 c0 -5 8 -44 17 -86 l18 -78 80 0 80 -1 -64 -58 -64 -58
21 -78 c22 -81 41 -117 39 -72 -1 14 -5 23 -8 21 -4 -2 -7 6 -7 19 0 12 -2 32
-6 45 -16 59 -16 61 34 103 86 73 77 96 -38 98 -39 1 -44 4 -58 36 -7 19 -14
45 -14 57 0 13 -7 32 -15 42 -8 11 -15 16 -15 10z"/>
<path d="M15 1264 c41 -7 165 -9 165 -3 0 3 -42 6 -92 7 -51 0 -84 -2 -73 -4z"/>
<path d="M200 1259 c0 -5 5 -7 10 -4 6 3 10 8 10 11 0 2 -4 4 -10 4 -5 0 -10
-5 -10 -11z"/>
<path d="M339 1254 c18 -8 36 -13 39 -10 6 6 -43 26 -61 25 -7 0 3 -7 22 -15z"/>
<path d="M3123 1263 c15 -2 39 -2 55 0 15 2 2 4 -28 4 -30 0 -43 -2 -27 -4z"/>
<path d="M3288 1263 c7 -3 16 -2 19 1 4 3 -2 6 -13 5 -11 0 -14 -3 -6 -6z"/>
<path d="M3488 1263 c23 -2 59 -2 80 0 20 2 1 4 -43 4 -44 0 -61 -2 -37 -4z"/>
<path d="M4171 1230 c-18 -17 -30 -30 -26 -30 4 0 23 14 42 30 18 17 30 30 26
30 -4 0 -23 -14 -42 -30z"/>
<path d="M4375 1240 c-10 -11 -14 -20 -9 -20 5 0 15 9 22 20 7 11 11 20 9 20
-2 0 -12 -9 -22 -20z"/>
<path d="M4498 1229 c7 -9 17 -30 22 -45 7 -24 8 -25 9 -7 1 12 -9 32 -21 45
-13 13 -17 16 -10 7z"/>
<path d="M0 1222 c0 -5 12 -14 26 -20 14 -7 23 -8 19 -2 -9 15 -45 32 -45 22z"/>
<path d="M200 874 l1 -356 36 7 c38 7 82 33 83 49 0 5 -8 2 -18 -7 -10 -9 -33
-20 -50 -23 l-31 -6 -3 340 c-2 187 0 338 4 336 5 -3 16 0 25 5 15 9 12 10
-15 11 l-32 0 0 -356z"/>
<path d="M3073 1210 c14 -11 29 -20 33 -20 4 0 -1 9 -11 20 -10 11 -25 20 -33
20 -9 0 -6 -7 11 -20z"/>
<path d="M3271 1207 c-13 -21 -12 -21 5 -5 10 10 16 20 13 22 -3 3 -11 -5 -18
-17z"/>
<path d="M3408 1221 c7 -4 20 -26 27 -47 14 -39 14 -39 15 -8 0 29 -25 64 -46
64 -5 0 -3 -4 4 -9z"/>
<path d="M3627 1223 c-4 -3 -7 -11 -7 -17 0 -6 5 -5 12 2 6 6 9 14 7 17 -3 3
-9 2 -12 -2z"/>
<path d="M270 1208 c0 -6 3 -9 6 -5 4 3 25 -11 47 -33 23 -21 44 -37 46 -34 3
3 -8 16 -23 29 -16 14 -25 25 -20 25 5 0 -4 7 -20 15 -34 18 -36 18 -36 3z"/>
<path d="M2496 1165 c-32 -30 -52 -55 -45 -55 8 0 35 20 61 45 l48 44 47 -44
c26 -25 54 -45 61 -45 8 0 -12 25 -44 55 -33 30 -61 54 -64 54 -3 0 -31 -24
-64 -54z"/>
<path d="M445 1198 c11 -7 28 -22 39 -35 10 -13 21 -22 24 -19 7 8 -55 66 -70
66 -7 0 -4 -6 7 -12z"/>
<path d="M4352 1185 c0 -16 2 -22 5 -12 2 9 2 23 0 30 -3 6 -5 -1 -5 -18z"/>
<path d="M3603 1165 c0 -22 2 -30 4 -17 2 12 2 30 0 40 -3 9 -5 -1 -4 -23z"/>
<path d="M4071 1189 c-18 -6 -31 -12 -29 -14 2 -3 24 1 49 9 49 16 33 20 -20
5z"/>
<path d="M4231 914 c0 -159 4 -307 8 -329 4 -22 6 106 4 284 -2 179 -6 327 -8
330 -3 2 -5 -126 -4 -285z"/>
<path d="M45 885 c0 -161 3 -291 7 -288 10 6 10 570 1 576 -5 3 -8 -127 -8
-288z"/>
<path d="M3094 1166 c-3 -8 -4 -148 -1 -311 4 -291 4 -296 -17 -310 -11 -8
-15 -15 -9 -15 6 0 18 7 27 15 12 13 15 63 16 325 0 171 -2 310 -5 310 -3 0
-8 -7 -11 -14z"/>
<path d="M3263 1125 c0 -22 2 -30 4 -17 2 12 2 30 0 40 -3 9 -5 -1 -4 -23z"/>
<path d="M4351 1134 c0 -11 3 -14 6 -6 3 7 2 16 -1 19 -3 4 -6 -2 -5 -13z"/>
<path d="M4048 1128 c12 -6 22 -18 23 -27 0 -11 2 -12 6 -3 7 17 -15 42 -36
41 -11 0 -10 -3 7 -11z"/>
<path d="M515 1120 c3 -5 8 -10 11 -10 2 0 4 5 4 10 0 6 -5 10 -11 10 -5 0 -7
-4 -4 -10z"/>
<path d="M3440 975 c0 -80 4 -145 9 -145 4 0 9 65 10 145 1 95 -2 145 -9 145
-6 0 -10 -51 -10 -145z"/>
<path d="M3604 960 c0 -91 2 -128 3 -82 2 45 2 119 0 165 -1 45 -3 8 -3 -83z"/>
<path d="M4350 1101 c0 -5 5 -13 10 -16 6 -3 10 -2 10 4 0 5 -4 13 -10 16 -5
3 -10 2 -10 -4z"/>
<path d="M399 1051 c9 -27 18 -47 20 -45 6 6 -21 94 -29 94 -3 0 1 -22 9 -49z"/>
<path d="M538 1085 c5 -11 12 -27 15 -35 5 -13 6 -13 6 1 1 8 -6 24 -15 35
-15 19 -15 19 -6 -1z"/>
<path d="M4076 1071 c-8 -12 1 -471 8 -479 3 -3 6 106 6 241 0 136 -2 247 -4
247 -3 0 -7 -4 -10 -9z"/>
<path d="M4477 1059 c-10 -6 -34 -9 -53 -7 -39 5 -46 -7 -10 -16 26 -6 86 11
86 25 0 11 -1 11 -23 -2z"/>
<path d="M562 1010 c0 -14 2 -19 5 -12 2 6 2 18 0 25 -3 6 -5 1 -5 -13z"/>
<path d="M766 991 c-4 -5 3 -7 14 -4 16 4 20 0 20 -18 0 -17 3 -20 12 -11 8 8
8 15 -2 27 -14 17 -36 20 -44 6z"/>
<path d="M858 993 c7 -3 16 -2 19 1 4 3 -2 6 -13 5 -11 0 -14 -3 -6 -6z"/>
<path d="M948 980 c12 -11 24 -20 28 -20 4 0 -1 9 -11 20 -10 11 -23 20 -28
20 -6 0 -1 -9 11 -20z"/>
<path d="M1125 990 c-3 -5 1 -10 9 -10 8 0 18 5 21 10 3 6 -1 10 -9 10 -8 0
-18 -4 -21 -10z"/>
<path d="M1208 993 c6 -2 18 -2 25 0 6 3 1 5 -13 5 -14 0 -19 -2 -12 -5z"/>
<path d="M1517 988 c-22 -14 -2 -15 33 -2 33 12 33 12 7 11 -15 -1 -33 -5 -40
-9z"/>
<path d="M1601 996 c10 -9 79 -14 74 -5 -4 5 -22 9 -42 9 -20 0 -34 -2 -32 -4z"/>
<path d="M2119 985 c-15 -8 -29 -24 -32 -36 -6 -20 -4 -20 21 4 15 14 38 30
52 36 21 8 22 10 5 10 -11 0 -32 -6 -46 -14z"/>
<path d="M2210 996 c0 -2 11 -6 25 -8 13 -3 22 -1 19 3 -5 9 -44 13 -44 5z"/>
<path d="M2430 992 c0 -5 14 -7 30 -4 17 2 30 6 30 8 0 2 -13 4 -30 4 -16 0
-30 -4 -30 -8z"/>
<path d="M2508 993 c7 -3 16 -2 19 1 4 3 -2 6 -13 5 -11 0 -14 -3 -6 -6z"/>
<path d="M2838 993 c6 -2 18 -2 25 0 6 3 1 5 -13 5 -14 0 -19 -2 -12 -5z"/>
<path d="M2898 993 c12 -2 30 -2 40 0 9 3 -1 5 -23 4 -22 0 -30 -2 -17 -4z"/>
<path d="M2960 990 c0 -5 5 -10 10 -10 6 0 10 5 10 10 0 6 -4 10 -10 10 -5 0
-10 -4 -10 -10z"/>
<path d="M3775 990 c-13 -6 -2 -7 30 -3 28 3 52 7 54 9 9 8 -65 2 -84 -6z"/>
<path d="M3870 996 c0 -2 14 -9 31 -15 27 -9 30 -9 19 4 -11 13 -50 22 -50 11z"/>
<path d="M4668 993 c29 -2 74 -2 100 0 26 2 2 3 -53 3 -55 0 -76 -1 -47 -3z"/>
<path d="M4838 993 c6 -2 18 -2 25 0 6 3 1 5 -13 5 -14 0 -19 -2 -12 -5z"/>
<path d="M5018 993 c12 -2 30 -2 40 0 9 3 -1 5 -23 4 -22 0 -30 -2 -17 -4z"/>
<path d="M5098 993 c7 -3 16 -2 19 1 4 3 -2 6 -13 5 -11 0 -14 -3 -6 -6z"/>
<path d="M1260 982 c0 -5 12 -15 28 -21 15 -6 36 -25 47 -41 11 -16 21 -27 23
-25 2 2 -5 16 -16 32 -21 30 -82 70 -82 55z"/>
<path d="M2018 962 c-21 -14 -36 -27 -34 -30 7 -6 65 30 70 45 3 7 4 13 3 12
-1 -1 -19 -13 -39 -27z"/>
<path d="M2778 974 c-39 -21 -35 -28 5 -8 37 19 44 24 31 24 -5 -1 -21 -8 -36
-16z"/>
<path d="M4452 961 c-21 -18 -51 -32 -78 -36 -24 -3 -44 -10 -44 -14 0 -5 17
-5 38 -1 38 7 122 56 122 71 0 12 -1 12 -38 -20z"/>
<path d="M422 900 c-1 -47 -7 -102 -13 -123 -6 -21 -8 -44 -6 -50 9 -27 28
106 24 179 l-3 79 -2 -85z"/>
<path d="M1061 959 c-13 -11 -22 -21 -20 -23 2 -3 15 4 28 15 13 11 22 21 20
23 -2 3 -15 -4 -28 -15z"/>
<path d="M1700 970 c0 -5 5 -10 11 -10 15 0 38 -25 47 -51 6 -14 11 -18 16
-11 3 6 -8 27 -25 46 -31 36 -49 45 -49 26z"/>
<path d="M2380 970 c-13 -8 -12 -10 3 -10 9 0 17 5 17 10 0 12 -1 12 -20 0z"/>
<path d="M2560 971 c0 -5 7 -12 16 -15 14 -5 15 -4 4 9 -14 17 -20 19 -20 6z"/>
<path d="M3940 970 c0 -5 5 -10 11 -10 5 0 7 5 4 10 -3 6 -8 10 -11 10 -2 0
-4 -4 -4 -10z"/>
<path d="M735 960 c-3 -5 -2 -10 4 -10 5 0 13 5 16 10 3 6 2 10 -4 10 -5 0
-13 -4 -16 -10z"/>
<path d="M1461 944 c-12 -15 -21 -32 -21 -38 0 -6 8 1 17 14 9 14 24 30 33 37
9 8 10 12 3 13 -6 0 -21 -12 -32 -26z"/>
<path d="M1546 954 c-18 -18 -21 -40 -6 -49 6 -3 10 5 10 19 0 29 19 44 31 25
5 -8 9 -9 9 -4 1 6 10 -6 21 -25 15 -27 18 -29 13 -10 -6 24 -38 60 -54 60 -5
0 -16 -7 -24 -16z"/>
<path d="M2280 966 c0 -2 7 -7 16 -10 8 -3 12 -2 9 4 -6 10 -25 14 -25 6z"/>
<path d="M2870 962 c-8 -3 -18 -10 -22 -16 -12 -17 -9 -66 3 -66 5 0 7 5 4 11
-4 5 -4 22 0 36 5 22 10 25 40 21 19 -2 35 -1 35 3 0 9 -42 17 -60 11z"/>
<path d="M3003 935 c0 -22 2 -30 4 -17 2 12 2 30 0 40 -3 9 -5 -1 -4 -23z"/>
<path d="M3835 962 c-6 -4 -11 -14 -13 -22 -3 -12 0 -12 14 2 18 18 17 33 -1
20z"/>
<path d="M4520 771 c0 -201 0 -202 25 -229 14 -15 25 -23 25 -18 0 5 -7 17
-16 27 -12 13 -16 55 -20 215 -3 109 -7 200 -10 203 -2 2 -4 -87 -4 -198z"/>
<path d="M5089 951 c-13 -11 -19 -20 -14 -20 14 0 50 28 43 34 -3 3 -16 -3
-29 -14z"/>
<path d="M826 935 c-18 -27 -13 -33 9 -11 8 7 11 17 7 21 -4 5 1 5 10 2 10 -3
20 -2 23 3 14 23 -34 8 -49 -15z"/>
<path d="M1182 953 c15 -2 35 -14 43 -26 8 -12 15 -16 15 -9 0 23 -27 42 -57
41 l-28 -2 27 -4z"/>
<path d="M3875 936 c9 -13 17 -42 18 -64 1 -23 6 -45 11 -49 5 -4 6 16 2 45
-7 53 -23 92 -39 92 -4 0 0 -11 8 -24z"/>
<path d="M3971 955 c0 -13 38 -59 44 -54 2 3 -7 18 -20 34 -13 17 -24 26 -24
20z"/>
<path d="M4618 953 c7 -3 16 -2 19 1 4 3 -2 6 -13 5 -11 0 -14 -3 -6 -6z"/>
<path d="M4840 956 c0 -10 32 -78 35 -74 6 6 -19 78 -27 78 -5 0 -8 -2 -8 -4z"/>
<path d="M4980 940 c0 -11 5 -20 10 -20 6 0 10 9 10 20 0 11 -4 20 -10 20 -5
0 -10 -9 -10 -20z"/>
<path d="M700 941 c0 -5 -18 -12 -40 -16 -22 -4 -38 -11 -35 -15 7 -11 95 18
95 31 0 5 -4 9 -10 9 -5 0 -10 -4 -10 -9z"/>
<path d="M984 832 c-1 -102 0 -109 8 -57 4 33 12 72 17 88 6 17 6 27 0 27 -5
0 -9 8 -9 18 0 9 -4 22 -8 29 -4 6 -7 -41 -8 -105z"/>
<path d="M2163 930 c16 -13 29 -36 33 -58 4 -20 9 -31 11 -25 7 21 -17 83 -37
93 -31 17 -34 11 -7 -10z"/>
<path d="M3695 940 c-3 -5 -1 -10 4 -10 6 0 11 5 11 10 0 6 -2 10 -4 10 -3 0
-8 -4 -11 -10z"/>
<path d="M882 920 c0 -14 2 -19 5 -12 2 6 2 18 0 25 -3 6 -5 1 -5 -13z"/>
<path d="M1156 925 c-9 -26 -7 -32 5 -12 6 10 9 21 6 23 -2 3 -7 -2 -11 -11z"/>
<path d="M2112 927 c-16 -19 -28 -299 -14 -323 9 -15 11 18 12 139 0 89 5 167
10 178 12 22 8 25 -8 6z"/>
<path d="M2327 922 c1 -8 3 -21 3 -30 0 -21 16 -4 25 28 7 22 6 23 -8 12 -8
-7 -17 -9 -19 -5 -3 4 -3 2 -1 -5z"/>
<path d="M2402 933 c-7 -2 -17 -14 -23 -26 -10 -21 -9 -21 5 -3 11 14 23 17
46 13 31 -7 42 6 14 17 -18 7 -23 7 -42 -1z"/>
<path d="M2600 931 c0 -6 4 -13 10 -16 6 -3 7 1 4 9 -7 18 -14 21 -14 7z"/>
<path d="M4640 931 c0 -5 5 -13 10 -16 6 -3 10 -2 10 4 0 5 -4 13 -10 16 -5 3
-10 2 -10 -4z"/>
<path d="M1925 920 c-18 -8 -17 -9 7 -9 15 -1 30 4 33 9 7 12 -12 12 -40 0z"/>
<path d="M2955 908 c4 -13 11 -27 16 -33 5 -5 4 5 -2 23 -12 36 -24 44 -14 10z"/>
<path d="M5031 908 c-16 -26 -11 -30 11 -7 10 10 14 20 10 23 -5 3 -14 -4 -21
-16z"/>
<path d="M1020 909 c0 -5 5 -7 10 -4 6 3 10 8 10 11 0 2 -4 4 -10 4 -5 0 -10
-5 -10 -11z"/>
<path d="M3672 900 c-7 -11 -12 -25 -12 -32 1 -7 8 0 16 15 18 33 14 46 -4 17z"/>
<path d="M3806 905 c-9 -26 -7 -32 5 -12 6 10 9 21 6 23 -2 3 -7 -2 -11 -11z"/>
<path d="M2465 900 c-3 -5 -1 -10 4 -10 6 0 11 5 11 10 0 6 -2 10 -4 10 -3 0
-8 -4 -11 -10z"/>
<path d="M2721 894 c0 -11 3 -14 6 -6 3 7 2 16 -1 19 -3 4 -6 -2 -5 -13z"/>
<path d="M4310 892 c0 -6 9 -16 20 -22 10 -6 24 -27 30 -48 13 -49 13 -259 0
-265 -6 -3 -5 -4 2 -3 9 2 14 31 16 102 4 136 -3 179 -39 216 -16 17 -29 26
-29 20z"/>
<path d="M4660 896 c0 -2 8 -10 18 -17 15 -13 16 -12 3 4 -13 16 -21 21 -21
13z"/>
<path d="M570 861 c0 -16 -3 -44 -6 -62 -4 -19 -4 -31 0 -27 11 9 24 118 14
118 -4 0 -8 -13 -8 -29z"/>
<path d="M1243 845 c0 -27 2 -38 4 -22 2 15 2 37 0 50 -2 12 -4 0 -4 -28z"/>
<path d="M4956 875 c-9 -26 -7 -32 5 -12 6 10 9 21 6 23 -2 3 -7 -2 -11 -11z"/>
<path d="M803 730 l1 -155 5 125 c3 69 3 139 0 155 -4 17 -7 -40 -6 -125z"/>
<path d="M1362 841 c-1 -25 -9 -52 -19 -63 -9 -10 -14 -21 -10 -24 14 -14 38
46 34 88 l-4 43 -1 -44z"/>
<path d="M1620 842 c0 -44 -14 -62 -49 -62 -24 0 -24 0 -5 22 l19 21 -30 -19
c-16 -10 -33 -23 -37 -29 -4 -5 -8 -6 -8 -2 0 4 -20 -6 -45 -23 -33 -23 -47
-40 -55 -70 -6 -22 -15 -40 -20 -40 -6 0 -10 -9 -10 -19 0 -11 -4 -22 -9 -25
-9 -6 -22 -46 -16 -46 2 0 12 17 22 37 l17 38 11 -39 c11 -37 11 -35 11 34 -1
68 1 74 30 100 22 19 51 31 97 40 37 7 72 19 79 28 15 17 20 92 7 92 -5 0 -9
-17 -9 -38z"/>
<path d="M1782 870 c0 -8 4 -26 8 -40 6 -20 8 -21 8 -5 0 11 -3 29 -8 40 -5
12 -8 14 -8 5z"/>
<path d="M2361 809 c0 -41 4 -96 9 -124 5 -32 6 -7 3 70 -6 134 -13 168 -12
54z"/>
<path d="M2474 871 c4 -5 7 -28 8 -51 1 -22 4 -43 8 -45 5 -3 6 7 2 78 -1 15
-7 27 -13 27 -5 0 -8 -4 -5 -9z"/>
<path d="M2632 860 c0 -14 2 -19 5 -12 2 6 2 18 0 25 -3 6 -5 1 -5 -13z"/>
<path d="M3250 870 c0 -5 5 -10 10 -10 6 0 10 5 10 10 0 6 -4 10 -10 10 -5 0
-10 -4 -10 -10z"/>
<path d="M4021 864 c0 -11 3 -14 6 -6 3 7 2 16 -1 19 -3 4 -6 -2 -5 -13z"/>
<path d="M4991 857 c-13 -21 -12 -21 5 -5 10 10 16 20 13 22 -3 3 -11 -5 -18
-17z"/>
<path d="M1442 850 c0 -14 2 -19 5 -12 2 6 2 18 0 25 -3 6 -5 1 -5 -13z"/>
<path d="M4880 866 c0 -4 7 -18 16 -32 13 -19 20 -22 30 -13 16 13 19 33 3 24
-5 -4 -19 1 -30 11 -10 9 -19 14 -19 10z"/>
<path d="M635 845 c5 -11 10 -73 11 -138 0 -64 5 -121 9 -125 4 -4 5 53 3 125
-3 95 -8 136 -17 145 -12 11 -12 10 -6 -7z"/>
<path d="M1927 839 c4 -13 8 -18 11 -10 2 7 -1 18 -6 23 -8 8 -9 4 -5 -13z"/>
<path d="M3790 834 c0 -16 5 -36 10 -44 6 -10 7 -2 3 25 -7 49 -13 58 -13 19z"/>
<path d="M2880 840 c0 -5 6 -10 14 -10 8 0 22 -7 30 -16 9 -8 16 -13 16 -9 0
10 89 -54 99 -73 6 -9 11 -12 11 -6 0 16 -49 59 -108 93 -58 34 -62 35 -62 21z"/>
<path d="M2722 820 c0 -14 2 -19 5 -12 2 6 2 18 0 25 -3 6 -5 1 -5 -13z"/>
<path d="M3250 820 c0 -19 7 -20 107 -20 58 0 103 3 100 6 -4 4 -47 6 -97 5
-76 -2 -90 0 -90 13 0 9 -4 16 -10 16 -5 0 -10 -9 -10 -20z"/>
<path d="M3647 826 c-4 -10 -7 -30 -6 -44 1 -25 1 -25 10 6 11 37 7 67 -4 38z"/>
<path d="M4710 828 c0 -9 5 -20 10 -23 13 -8 13 5 0 25 -8 13 -10 13 -10 -2z"/>
<path d="M952 810 c-12 -10 -18 -21 -14 -24 10 -6 48 31 41 38 -2 2 -14 -4
-27 -14z"/>
<path d="M1140 792 c0 -23 4 -42 9 -42 6 0 7 17 4 38 -8 51 -13 53 -13 4z"/>
<path d="M2200 815 c0 -8 5 -15 10 -15 6 0 10 7 10 15 0 8 -4 15 -10 15 -5 0
-10 -7 -10 -15z"/>
<path d="M2642 785 c0 -58 14 -170 18 -140 1 11 2 24 1 29 -1 6 -6 44 -10 85
-7 61 -8 66 -9 26z"/>
<path d="M4946 809 c-10 -12 -14 -25 -9 -30 5 -5 14 4 20 21 13 36 13 36 -11
9z"/>
<path d="M1450 811 c0 -10 29 -36 34 -30 1 2 -6 12 -16 22 -10 9 -18 13 -18 8z"/>
<path d="M870 800 c0 -12 28 -21 35 -11 2 5 -4 11 -15 14 -11 3 -20 2 -20 -3z"/>
<path d="M3880 800 c-8 -5 -12 -11 -10 -14 3 -2 14 2 24 10 22 15 10 19 -14 4z"/>
<path d="M1195 780 c-19 -12 -24 -20 -14 -20 9 0 24 9 34 20 23 25 18 25 -20
0z"/>
<path d="M1790 771 c0 -17 2 -31 4 -31 8 0 13 51 5 56 -5 3 -9 -9 -9 -25z"/>
<path d="M1932 682 c5 -124 5 -126 -44 -151 -16 -8 -28 -18 -28 -22 0 -10 72
30 82 46 13 17 10 245 -3 245 -8 0 -10 -35 -7 -118z"/>
<path d="M2730 785 c0 -4 9 -18 20 -32 11 -14 20 -32 20 -39 0 -8 6 -14 14
-14 8 0 28 -11 44 -25 25 -21 30 -22 28 -7 0 9 -19 29 -42 43 -22 15 -50 39
-62 54 -12 15 -22 24 -22 20z"/>
<path d="M4735 780 c4 -8 18 -29 31 -47 l24 -31 -41 -44 c-38 -40 -65 -78 -56
-78 2 0 27 27 56 60 l52 59 -18 28 c-21 32 -60 76 -48 53z"/>
<path d="M1636 771 c-4 -5 -2 -20 3 -33 9 -21 10 -21 10 10 1 32 -3 39 -13 23z"/>
<path d="M2212 666 c-1 -84 -6 -122 -14 -128 -10 -6 -9 -8 3 -8 21 0 29 29 28
110 -1 130 -15 152 -17 26z"/>
<path d="M3254 773 c10 -10 11 -10 107 -12 l81 -1 -4 -109 c-2 -60 0 -104 4
-98 4 7 8 60 8 120 l0 107 -102 0 c-56 0 -98 -3 -94 -7z"/>
<path d="M3603 740 c0 -25 2 -35 4 -22 2 12 2 32 0 45 -2 12 -4 2 -4 -23z"/>
<path d="M3845 771 c-3 -6 -14 -8 -25 -6 -11 2 -20 0 -20 -6 0 -15 36 -11 50
6 7 8 10 15 7 15 -3 0 -8 -4 -12 -9z"/>
<path d="M551 744 c0 -11 3 -14 6 -6 3 7 2 16 -1 19 -3 4 -6 -2 -5 -13z"/>
<path d="M2497 670 c3 -52 6 -99 8 -105 7 -21 3 151 -4 175 -5 14 -6 -18 -4
-70z"/>
<path d="M3970 751 c-8 -5 -42 -12 -75 -15 -86 -10 -96 -14 -86 -34 5 -9 14
-30 20 -46 7 -16 14 -26 17 -24 2 3 -3 21 -11 41 -8 20 -15 38 -15 40 0 2 17
4 38 5 51 2 132 22 132 33 0 11 -1 11 -20 0z"/>
<path d="M4957 739 c4 -13 8 -18 11 -10 2 7 -1 18 -6 23 -8 8 -9 4 -5 -13z"/>
<path d="M1295 740 c-3 -5 -1 -10 4 -10 6 0 11 5 11 10 0 6 -2 10 -4 10 -3 0
-8 -4 -11 -10z"/>
<path d="M1173 729 c-23 -7 -31 -14 -26 -24 5 -14 7 -14 17 0 7 9 32 18 60 20
27 3 52 7 54 10 9 8 -71 4 -105 -6z"/>
<path d="M1586 725 c-16 -12 -17 -15 -4 -15 9 0 18 7 22 15 7 18 6 18 -18 0z"/>
<path d="M3258 658 c3 -86 16 -128 39 -128 9 0 6 7 -7 20 -17 17 -20 33 -20
105 0 47 -3 85 -7 85 -5 0 -7 -37 -5 -82z"/>
<path d="M1802 669 c4 -35 11 -65 13 -68 8 -8 -7 113 -15 122 -4 4 -3 -20 2
-54z"/>
<path d="M4986 703 c4 -12 15 -30 26 -40 20 -18 21 -17 10 2 -6 11 -17 29 -26
40 -15 20 -15 20 -10 -2z"/>
<path d="M386 695 c-3 -8 -1 -15 4 -15 6 0 10 7 10 15 0 8 -2 15 -4 15 -2 0
-6 -7 -10 -15z"/>
<path d="M991 694 c0 -11 3 -14 6 -6 3 7 2 16 -1 19 -3 4 -6 -2 -5 -13z"/>
<path d="M1562 688 c-14 -14 -16 -94 -3 -102 5 -3 6 14 3 39 -3 28 0 50 8 60
15 18 9 20 -8 3z"/>
<path d="M1648 639 c4 -47 1 -64 -13 -79 -19 -21 -7 -28 13 -8 13 13 17 134 4
142 -5 3 -6 -22 -4 -55z"/>
<path d="M516 658 l-18 -33 21 25 c18 22 26 40 18 40 -1 0 -11 -15 -21 -32z"/>
<path d="M3602 660 c0 -14 2 -19 5 -12 2 6 2 18 0 25 -3 6 -5 1 -5 -13z"/>
<path d="M4802 668 c-15 -15 -16 -31 -1 -22 7 4 20 -4 31 -17 15 -20 17 -21
11 -4 -13 39 -29 55 -41 43z"/>
<path d="M366 655 c-3 -8 -1 -15 4 -15 6 0 10 7 10 15 0 8 -2 15 -4 15 -2 0
-6 -7 -10 -15z"/>
<path d="M3651 654 c0 -11 3 -14 6 -6 3 7 2 16 -1 19 -3 4 -6 -2 -5 -13z"/>
<path d="M4002 640 c-7 -11 -12 -25 -12 -32 1 -7 8 0 16 15 18 33 14 46 -4 17z"/>
<path d="M1185 630 c21 -24 26 -25 19 -6 -3 8 -13 17 -22 21 -13 5 -13 2 3
-15z"/>
<path d="M1345 640 c-3 -5 -1 -10 4 -10 6 0 11 5 11 10 0 6 -2 10 -4 10 -3 0
-8 -4 -11 -10z"/>
<path d="M2712 620 c0 -19 2 -27 5 -17 2 9 2 25 0 35 -3 9 -5 1 -5 -18z"/>
<path d="M1000 635 c0 -5 5 -17 10 -25 5 -8 10 -10 10 -5 0 6 -5 17 -10 25 -5
8 -10 11 -10 5z"/>
<path d="M5050 606 c24 -40 70 -94 70 -82 0 7 -60 87 -84 111 -5 6 1 -7 14
-29z"/>
<path d="M3860 620 c0 -5 5 -10 11 -10 5 0 7 5 4 10 -3 6 -8 10 -11 10 -2 0
-4 -4 -4 -10z"/>
<path d="M4752 602 c-29 -40 -31 -66 -7 -69 11 -1 14 0 8 3 -19 8 -16 32 8 65
11 16 18 29 15 29 -2 0 -14 -12 -24 -28z"/>
<path d="M1314 609 c-4 -7 -24 -9 -51 -6 -32 3 -42 2 -34 -6 17 -17 79 -13 98
6 10 10 12 17 6 17 -7 0 -15 -5 -19 -11z"/>
<path d="M2664 595 c4 -16 12 -34 17 -40 5 -5 4 6 -2 25 -15 45 -24 54 -15 15z"/>
<path d="M2921 594 c-1 -30 -27 -64 -49 -64 -6 0 -22 5 -36 11 -24 11 -24 13
-9 38 l16 26 -23 -22 c-23 -22 -23 -23 -5 -43 26 -29 80 -27 100 4 9 14 15 37
12 53 l-4 28 -2 -31z"/>
<path d="M3600 591 c0 -17 4 -32 8 -35 4 -2 6 11 4 30 -5 42 -12 45 -12 5z"/>
<path d="M3671 610 c-1 -9 13 -31 29 -50 19 -22 27 -27 20 -13 -5 12 -15 25
-21 28 -6 4 -14 17 -19 29 -6 13 -9 15 -9 6z"/>
<path d="M458 578 c-15 -15 -21 -28 -15 -28 11 1 53 49 45 53 -1 2 -15 -10
-30 -25z"/>
<path d="M3925 600 c-27 -4 -41 -8 -30 -10 31 -5 69 0 80 11 5 5 7 8 5 7 -3 0
-27 -4 -55 -8z"/>
<path d="M330 589 c0 -5 5 -7 10 -4 6 3 10 8 10 11 0 2 -4 4 -10 4 -5 0 -10
-5 -10 -11z"/>
<path d="M3041 584 c0 -11 3 -14 6 -6 3 7 2 16 -1 19 -3 4 -6 -2 -5 -13z"/>
<path d="M1036 565 c9 -14 19 -24 21 -21 6 6 -20 46 -30 46 -4 0 0 -11 9 -25z"/>
<path d="M2395 563 c9 -20 23 -33 33 -32 16 1 16 2 0 6 -10 2 -18 8 -18 12 0
4 -7 16 -15 27 -14 17 -14 15 0 -13z"/>
<path d="M1820 574 c0 -8 32 -33 43 -34 4 0 7 5 7 10 0 6 -7 10 -15 10 -8 0
-15 5 -15 10 0 6 -4 10 -10 10 -5 0 -10 -3 -10 -6z"/>
<path d="M2100 572 c0 -15 27 -45 36 -41 5 2 -1 14 -13 26 -13 12 -23 19 -23
15z"/>
<path d="M4008 559 c-19 -30 -79 -64 -106 -60 -15 2 -22 -1 -18 -8 16 -25 104
16 130 61 10 15 15 28 12 28 -3 0 -11 -9 -18 -21z"/>
<path d="M4625 544 c-27 -19 -46 -34 -41 -34 16 0 96 50 96 60 0 12 4 14 -55
-26z"/>
<path d="M4865 563 c2 -10 4 -22 4 -26 1 -5 5 -6 10 -3 11 7 3 46 -9 46 -5 0
-7 -8 -5 -17z"/>
<path d="M27 550 c-9 -11 -13 -20 -8 -20 4 0 16 9 26 20 10 11 14 20 9 20 -5
0 -17 -9 -27 -20z"/>
<path d="M633 556 c-4 -7 -15 -16 -23 -19 -11 -4 -9 -6 5 -6 11 -1 26 8 33 19
7 11 8 20 3 20 -6 0 -14 -6 -18 -14z"/>
<path d="M820 545 c7 -8 17 -15 22 -15 5 0 3 7 -6 15 -8 8 -18 15 -22 15 -3 0
-1 -7 6 -15z"/>
<path d="M1659 534 c-12 -15 -12 -17 0 -13 8 3 25 -6 38 -19 13 -13 28 -20 35
-16 8 5 4 10 -9 15 -12 4 -27 17 -36 29 -13 19 -15 19 -28 4z"/>
<path d="M2473 538 c-13 -6 -23 -15 -23 -20 0 -5 11 -1 25 8 37 24 35 30 -2
12z"/>
<path d="M2730 546 c0 -9 32 -36 43 -36 6 0 1 9 -11 20 -20 19 -32 25 -32 16z"/>
<path d="M382 523 c-13 -9 -40 -20 -60 -24 l-37 -7 33 -1 c35 -1 92 23 92 39
0 12 0 12 -28 -7z"/>
<path d="M1300 516 c-27 -16 -51 -21 -103 -20 -38 0 -72 5 -79 12 -7 7 -19 12
-28 12 -8 -1 3 -10 24 -22 33 -17 52 -20 107 -16 42 3 73 11 83 21 9 8 21 17
28 20 7 2 11 6 8 9 -3 3 -21 -4 -40 -16z"/>
<path d="M1430 533 c0 -17 41 -43 75 -48 47 -6 44 2 -5 15 -21 6 -46 17 -55
26 -8 8 -15 12 -15 7z"/>
<path d="M2698 533 c7 -3 16 -2 19 1 4 3 -2 6 -13 5 -11 0 -14 -3 -6 -6z"/>
<path d="M2976 518 c-26 -15 -58 -21 -101 -22 -35 -1 -61 -5 -58 -10 3 -4 35
-6 72 -3 50 4 76 11 105 31 46 31 37 33 -18 4z"/>
<path d="M3746 522 c-7 -12 32 -29 81 -36 l38 -6 -41 13 c-23 6 -48 18 -57 25
-8 7 -18 9 -21 4z"/>
<path d="M1628 503 c7 -3 16 -2 19 1 4 3 -2 6 -13 5 -11 0 -14 -3 -6 -6z"/>
<path d="M1820 495 c-15 -8 -19 -14 -10 -14 18 -1 46 16 40 23 -3 2 -16 -2
-30 -9z"/>
<path d="M0 496 c0 -2 9 -6 20 -9 11 -3 18 -1 14 4 -5 9 -34 13 -34 5z"/>
<path d="M56 492 c-2 -4 20 -9 50 -10 33 -2 54 1 54 7 0 12 -96 15 -104 3z"/>
<path d="M213 493 c9 -2 25 -2 35 0 9 3 1 5 -18 5 -19 0 -27 -2 -17 -5z"/>
<path d="M624 492 c6 -11 226 -12 226 -2 0 4 -52 8 -116 9 -66 1 -113 -2 -110
-7z"/>
<path d="M1565 490 c-3 -5 3 -10 14 -10 11 0 23 5 26 10 3 6 -3 10 -14 10 -11
0 -23 -4 -26 -10z"/>
<path d="M1920 491 c0 -12 157 -13 165 -1 4 6 -24 10 -79 10 -47 0 -86 -4 -86
-9z"/>
<path d="M2108 493 c7 -3 16 -2 19 1 4 3 -2 6 -13 5 -11 0 -14 -3 -6 -6z"/>
<path d="M2193 493 c10 -9 217 -12 240 -3 14 5 -28 8 -112 8 -73 1 -131 -2
-128 -5z"/>
<path d="M2513 493 c26 -2 67 -2 90 0 23 2 2 3 -48 3 -49 0 -68 -1 -42 -3z"/>
<path d="M3100 496 c9 -8 209 -16 214 -8 3 5 -45 10 -107 11 -61 1 -110 0
-107 -3z"/>
<path d="M3400 496 c0 -2 7 -6 15 -10 8 -3 15 -1 15 4 0 6 -7 10 -15 10 -8 0
-15 -2 -15 -4z"/>
<path d="M3442 495 c11 -11 163 -17 188 -7 19 7 -2 10 -84 11 -61 1 -107 -1
-104 -4z"/>
<path d="M4040 490 c20 -13 33 -13 25 0 -3 6 -14 10 -23 10 -15 0 -15 -2 -2
-10z"/>
<path d="M4125 490 c72 -12 115 -11 115 0 0 6 -33 9 -82 9 -78 -2 -80 -2 -33
-9z"/>
<path d="M4258 493 c6 -2 18 -2 25 0 6 3 1 5 -13 5 -14 0 -19 -2 -12 -5z"/>
<path d="M4320 496 c0 -2 9 -6 20 -9 11 -3 20 -1 20 4 0 5 -9 9 -20 9 -11 0
-20 -2 -20 -4z"/>
<path d="M4438 493 c29 -2 74 -2 100 0 26 2 2 3 -53 3 -55 0 -76 -1 -47 -3z"/>
<path d="M4613 494 c10 -11 107 -14 107 -3 0 5 -25 9 -57 9 -31 0 -53 -3 -50
-6z"/>
<path d="M4888 493 c6 -2 18 -2 25 0 6 3 1 5 -13 5 -14 0 -19 -2 -12 -5z"/>
<path d="M4940 493 c0 -9 169 -7 178 1 3 3 -36 6 -86 6 -51 0 -92 -3 -92 -7z"/>
<path d="M1758 483 c6 -2 18 -2 25 0 6 3 1 5 -13 5 -14 0 -19 -2 -12 -5z"/>
<path d="M880 313 c0 -6 -8 -13 -18 -16 -11 -2 -21 -14 -25 -26 -3 -11 -1 -19
3 -16 8 5 5 -36 -5 -87 -2 -10 1 -18 6 -18 5 0 9 -5 9 -11 0 -5 -4 -8 -9 -5
-5 4 -7 -4 -3 -16 7 -29 33 -70 40 -63 3 2 10 -2 16 -11 14 -19 66 -25 85 -10
8 6 16 10 18 9 10 -8 33 -2 28 7 -9 14 1 12 17 -3 17 -17 72 -32 63 -17 -4 7
2 7 20 0 16 -6 33 -7 42 -1 9 5 29 5 45 1 23 -7 30 -5 40 13 7 12 13 24 13 27
9 37 19 60 25 60 5 0 10 8 12 18 2 10 11 -2 23 -33 10 -27 24 -56 31 -64 20
-22 100 -22 120 1 10 10 13 18 8 18 -5 0 -2 4 6 10 10 6 22 0 42 -22 15 -18
28 -28 28 -24 0 5 6 3 14 -3 10 -8 16 -9 21 -1 3 5 18 7 31 4 20 -5 29 -1 42
17 17 24 18 28 21 51 0 7 14 -9 31 -35 25 -40 33 -46 58 -43 16 2 34 6 40 10
7 4 10 -1 7 -14 -5 -28 21 -26 29 3 3 12 6 34 6 50 0 17 5 27 15 27 19 0 21
-70 3 -89 -11 -10 -8 -12 12 -9 22 3 25 8 26 51 1 33 -3 50 -12 54 -8 3 -12 8
-9 13 2 4 -8 7 -23 6 -26 -1 -27 0 -30 64 -4 112 -19 136 -66 105 -18 -12 -22
-23 -20 -45 5 -38 -12 -40 -19 -2 -7 37 -63 78 -83 62 -8 -7 -14 -9 -14 -4 -1
5 -10 -2 -21 -15 -14 -17 -23 -21 -27 -14 -20 33 -132 44 -170 17 -29 -20 -28
-32 6 -67 15 -17 21 -27 15 -23 -8 4 -13 1 -13 -7 0 -18 -39 -30 -41 -14 -2
15 -5 31 -9 37 -2 5 -9 39 -12 67 -1 7 -4 11 -6 8 -3 -3 -11 0 -19 6 -7 6 -13
8 -13 4 0 -4 -6 -2 -14 4 -11 9 -19 9 -35 0 -23 -15 -56 -82 -54 -113 1 -11
-1 -15 -4 -8 -3 6 -8 10 -13 7 -4 -3 -14 2 -21 11 -11 14 -11 18 4 29 22 16
22 37 -1 56 -20 17 -142 23 -142 7 0 -4 -6 -8 -12 -8 -21 0 -34 -41 -32 -101
l2 -55 -39 -2 c-26 -2 -39 1 -40 10 0 7 0 41 -1 75 0 52 -4 65 -24 84 -13 12
-24 18 -24 12z m22 -115 l3 -93 52 -3 c48 -3 52 -5 49 -25 -3 -19 -8 -21 -47
-19 -62 4 -77 10 -84 33 -5 15 -9 148 -6 192 1 4 8 7 16 7 11 0 15 -19 17 -92z
m278 64 c0 -22 -3 -23 -48 -17 -37 4 -52 2 -62 -9 -24 -30 -5 -46 55 -46 48 0
55 -3 55 -20 0 -16 -8 -19 -57 -22 -50 -3 -58 -6 -58 -23 0 -17 8 -20 58 -23
51 -3 57 -5 57 -25 0 -21 -4 -22 -62 -19 -35 2 -69 9 -75 14 -16 13 -17 70 -1
86 8 8 8 15 -1 26 -7 8 -11 30 -9 48 4 41 30 55 98 54 46 -1 50 -3 50 -24z
m155 18 c3 -5 19 -51 34 -102 16 -51 31 -100 35 -108 5 -11 1 -16 -14 -16 -16
0 -23 12 -35 56 -28 99 -42 135 -50 135 -4 0 -20 -40 -35 -90 -21 -70 -32 -91
-47 -93 -18 -3 -17 4 14 99 18 56 38 108 44 115 13 16 45 19 54 4z m238 -21
c22 -28 22 -61 -2 -90 -18 -23 -18 -24 0 -67 23 -53 23 -51 0 -45 -11 3 -26
23 -36 49 -15 38 -20 44 -47 44 -29 0 -29 -1 -27 -42 2 -24 0 -44 -4 -45 -23
-9 -28 1 -25 55 l3 57 54 5 c61 6 85 27 61 55 -11 13 -25 15 -67 11 -50 -5
-53 -4 -53 18 0 22 3 23 63 20 48 -3 66 -8 80 -25z m157 -68 c19 -51 40 -94
45 -95 6 0 11 37 11 94 2 78 5 96 18 98 14 3 16 -11 16 -102 0 -82 -3 -108
-16 -120 -36 -37 -59 -13 -100 105 -15 44 -32 78 -37 76 -6 -2 -9 -43 -8 -95
2 -88 1 -92 -19 -92 -20 0 -21 4 -19 101 2 108 12 133 53 127 17 -2 28 -22 56
-97z m-523 -39 c-8 -10 -12 -23 -10 -30 3 -8 -1 -10 -12 -6 -14 6 -14 9 5 29
11 12 17 25 13 30 -5 4 -2 5 5 1 11 -7 11 -11 -1 -24z"/>
<path d="M2003 287 c-25 -25 -28 -35 -29 -113 -2 -73 1 -89 17 -105 10 -10 20
-22 22 -26 1 -5 38 -8 82 -8 44 0 83 -4 87 -10 5 -6 8 -5 8 2 0 7 6 10 14 7
16 -6 36 24 36 55 0 12 5 21 10 21 6 0 10 11 10 24 0 34 13 39 27 10 6 -13 7
-22 2 -19 -4 3 -2 -7 6 -22 8 -15 15 -34 15 -41 0 -7 7 -15 15 -18 8 -4 13
-10 10 -14 -3 -5 7 -5 23 -1 16 5 40 7 55 6 29 -3 42 14 46 64 1 15 46 -37 46
-53 0 -12 53 -17 61 -5 4 6 10 6 19 -1 15 -13 61 5 69 27 3 8 1 11 -4 8 -6 -3
-7 1 -4 9 6 16 36 23 32 8 -1 -4 3 -17 10 -29 14 -25 42 -37 95 -41 10 -1 15
-6 12 -12 -3 -5 -1 -10 4 -10 6 0 11 7 11 15 0 8 5 15 10 15 6 0 10 16 10 35
0 24 5 35 15 35 19 0 21 -70 3 -88 -9 -9 -8 -12 5 -12 9 0 17 1 18 3 19 94 -2
143 -48 114 -9 -6 -13 15 -15 85 -3 88 -4 93 -26 96 -14 2 -20 8 -16 15 4 7
-3 2 -16 -9 -15 -15 -22 -33 -22 -58 0 -20 -4 -33 -9 -30 -5 3 -9 14 -9 25 0
10 -5 19 -10 19 -6 0 -9 5 -8 11 2 6 -11 20 -29 30 -29 16 -35 17 -62 3 -17
-9 -31 -18 -31 -20 0 -3 4 -2 10 1 5 3 7 0 4 -8 -4 -12 -11 -10 -30 10 -17 17
-30 22 -45 18 -12 -4 -19 -3 -16 1 7 12 -85 4 -100 -8 -17 -14 -16 -48 2 -68
13 -14 13 -19 -1 -38 -16 -23 -34 -21 -34 4 0 46 -72 141 -89 117 -3 -4 -13
-9 -21 -11 -8 -2 -16 -7 -18 -12 -2 -4 -12 -18 -23 -31 -22 -26 -24 -33 -6
-23 10 6 10 4 0 -7 -7 -7 -13 -21 -13 -31 0 -11 -5 -15 -14 -12 -11 4 -12 12
-7 27 5 13 3 39 -3 62 l-12 40 -62 0 c-56 1 -65 -2 -89 -28z m147 -25 c0 -22
-3 -23 -40 -17 -54 9 -82 -1 -78 -28 3 -19 10 -22 61 -25 49 -3 57 -6 57 -22
0 -18 -7 -20 -60 -20 -57 0 -60 -1 -60 -25 0 -24 3 -25 60 -25 54 0 60 -2 60
-20 0 -19 -5 -21 -67 -18 -63 3 -69 5 -81 31 -11 23 -11 32 2 57 8 17 10 32 5
36 -5 3 -9 20 -9 39 0 45 24 61 94 60 52 0 56 -2 56 -23z m150 13 c10 -12 70
-196 70 -216 0 -4 -8 -5 -18 -2 -13 3 -25 29 -43 92 -13 49 -28 90 -34 92 -5
2 -22 -37 -38 -88 -21 -67 -34 -93 -48 -96 -10 -3 -19 -4 -19 -4 1 8 71 221
76 228 8 14 40 11 54 -6z m236 -6 c25 -21 28 -69 5 -100 l-21 -29 20 -40 c24
-48 25 -49 2 -43 -10 2 -28 24 -40 49 -17 35 -27 44 -47 44 -23 0 -25 -3 -25
-50 0 -40 -3 -48 -15 -43 -12 4 -15 18 -13 62 l3 56 55 5 c53 5 55 6 55 35 l0
30 -57 -2 c-55 -1 -58 0 -58 22 0 22 3 23 62 19 34 -3 67 -9 74 -15z m128 0
c8 -12 27 -57 42 -100 15 -44 31 -79 36 -79 4 0 8 45 8 101 0 90 2 100 18 97
15 -3 17 -16 16 -106 -1 -79 -4 -107 -16 -119 -31 -30 -54 -8 -90 89 -46 126
-60 127 -56 4 3 -86 1 -96 -14 -96 -16 0 -18 11 -18 96 0 52 5 104 10 115 14
25 45 24 64 -2z m-501 -50 c-4 -15 -9 -17 -17 -9 -8 8 -7 13 4 20 8 5 16 10
17 10 0 0 -1 -9 -4 -21z m4 -93 c0 -8 -8 -11 -21 -8 -19 5 -19 6 0 13 10 4 19
8 20 8 0 1 1 -5 1 -13z m628 -85 c-3 -6 -11 -8 -17 -5 -6 4 -5 9 3 15 16 10
23 4 14 -10z"/>
<path d="M3165 311 c8 -14 -34 -25 -48 -13 -7 6 -40 9 -74 8 -52 -2 -65 -6
-82 -26 -30 -36 -26 -130 6 -130 8 0 11 -4 8 -10 -3 -5 0 -10 7 -10 7 0 2 -6
-12 -13 -31 -16 -36 -41 -16 -72 13 -20 20 -23 40 -15 15 5 26 5 28 0 2 -5 23
-4 51 3 27 7 45 16 41 20 -4 4 2 7 12 7 11 0 25 -5 30 -10 21 -21 102 -23 132
-5 l27 18 -19 -22 c-13 -15 -15 -20 -5 -16 8 3 20 15 27 26 11 17 11 20 0 14
-7 -3 -4 1 7 9 18 15 20 15 27 -4 4 -11 10 -20 13 -20 4 0 3 6 0 12 -4 7 2 2
13 -11 20 -25 92 -41 92 -22 0 6 7 8 15 5 13 -5 54 24 47 34 -2 2 -1 7 3 10 4
4 5 0 3 -8 -1 -8 4 -14 12 -15 8 -1 14 -7 12 -14 -2 -9 3 -11 14 -7 10 4 21 1
26 -6 8 -10 11 -10 15 -1 2 7 9 13 14 13 6 0 7 -4 4 -10 -11 -18 35 -10 54 9
11 11 19 21 18 23 -1 2 3 -2 8 -8 20 -22 54 -34 95 -34 29 0 39 4 34 12 -4 7
-3 8 5 4 6 -4 18 -3 25 3 10 8 25 7 56 -4 49 -17 53 -18 46 -6 -3 4 6 7 21 5
14 -1 35 1 47 6 25 9 42 8 39 -3 -2 -4 0 -7 5 -8 87 -10 109 -8 136 16 16 14
35 37 43 51 16 31 15 130 -1 157 -15 25 -73 60 -86 52 -5 -3 -10 -1 -10 5 0
14 -49 7 -79 -11 -18 -12 -23 -12 -30 0 -6 8 -19 12 -35 9 -14 -3 -23 -1 -20
3 8 13 -10 11 -25 -4 -11 -9 -13 -9 -7 1 10 17 -5 15 -33 -5 -18 -12 -22 -13
-17 -2 4 8 1 6 -7 -4 -17 -20 -24 -20 -49 2 -22 18 -138 16 -155 -4 -5 -4 -1
-4 7 0 13 8 13 7 1 -8 -15 -18 -26 -23 -16 -7 3 6 1 10 -5 10 -6 0 -8 6 -4 13
4 6 4 9 0 5 -4 -3 -23 -2 -42 3 -19 6 -40 6 -47 2 -6 -4 -14 -8 -17 -8 -24 -3
-49 -18 -44 -27 4 -6 -3 -5 -15 2 -12 6 -25 18 -28 26 -4 10 -16 13 -42 10
-20 -3 -37 -5 -38 -7 -3 -2 -19 -6 -31 -8 -5 0 -18 -10 -29 -21 -21 -19 -22
-19 -28 0 -8 26 -43 36 -63 17 -10 -11 -16 -39 -18 -89 -2 -40 -3 -76 -3 -80
-1 -4 -8 -5 -16 -2 -10 4 -15 20 -15 44 0 84 -11 127 -37 139 -13 6 -22 7 -18
2z m-55 -49 c0 -21 -3 -22 -48 -16 -37 5 -51 2 -61 -10 -23 -28 -6 -46 43 -46
27 0 51 -6 60 -16 19 -19 21 -87 3 -102 -6 -6 -41 -12 -76 -13 -59 -2 -64 -1
-68 19 -3 21 1 22 62 22 63 0 65 1 65 25 0 23 -4 25 -45 25 -32 0 -51 6 -65
20 -32 32 -22 100 18 111 6 2 35 4 62 4 45 0 50 -2 50 -23z m82 -64 l3 -93 40
0 40 0 3 93 c2 79 5 93 19 90 13 -3 16 -18 14 -97 -3 -123 -7 -131 -76 -131
-69 0 -75 10 -75 134 0 78 3 96 15 96 11 0 15 -19 17 -92z m308 66 c0 -20 -5
-23 -46 -21 -54 2 -74 -17 -74 -71 0 -57 14 -72 70 -72 45 0 50 -2 50 -22 0
-21 -4 -23 -54 -20 -71 5 -89 24 -93 100 -6 92 23 126 105 128 37 0 42 -3 42
-22z m180 0 c0 -21 -4 -22 -40 -18 -51 6 -80 -20 -80 -72 0 -59 14 -74 70 -74
43 0 50 -3 50 -20 0 -17 -7 -20 -44 -20 -24 0 -52 3 -61 6 -40 16 -59 120 -32
174 16 32 43 45 95 46 37 1 42 -2 42 -22z m188 1 c-3 -17 -10 -20 -58 -20 -53
0 -55 -1 -58 -28 l-3 -28 66 2 c45 2 69 -2 78 -11 10 -12 9 -12 -5 -1 -16 12
-18 11 -18 -8 0 -19 -6 -21 -59 -21 -39 0 -61 -4 -64 -12 -10 -29 6 -38 64
-38 53 0 59 -2 59 -20 0 -19 -5 -21 -67 -18 -62 3 -69 5 -83 31 -14 25 -13 30
2 57 9 16 13 30 8 32 -5 2 -12 15 -15 30 -5 21 -1 33 17 51 20 20 34 24 81 23
52 0 58 -3 55 -21z m182 -2 c0 -22 -3 -23 -49 -19 -53 5 -78 -10 -67 -39 4
-11 21 -15 61 -15 48 0 55 -3 55 -20 0 -16 -8 -19 -57 -22 -50 -3 -58 -6 -58
-23 0 -17 8 -20 58 -23 51 -3 57 -5 57 -25 0 -21 -3 -22 -66 -17 -41 4 -68 11
-74 20 -14 21 -12 64 2 78 9 9 9 15 0 24 -16 16 -15 60 1 80 16 20 29 24 88
24 45 0 49 -2 49 -23z m147 18 c7 -1 21 -11 33 -23 34 -37 25 -164 -14 -190
-6 -4 -37 -8 -68 -8 l-58 0 0 108 c0 60 2 111 5 114 3 3 24 4 48 2 23 -1 47
-3 54 -3z m-1068 -79 c0 -11 -2 -12 -6 -4 -2 6 -9 10 -14 7 -5 -4 -6 1 -3 9 8
20 24 11 23 -12z m377 -16 c-3 -15 -6 -37 -6 -47 0 -14 -7 -19 -29 -19 -37 0
-62 9 -56 20 3 5 1 11 -5 15 -6 4 -5 16 4 34 13 24 21 28 56 27 40 -1 41 -1
36 -30z m164 24 c0 -5 5 -9 11 -7 14 3 22 -43 11 -60 -12 -18 -92 -20 -102 -2
-8 12 -4 52 7 72 6 11 73 9 73 -3z m395 -80 c3 -5 -1 -10 -10 -10 -9 0 -13 5
-10 10 3 6 8 10 10 10 2 0 7 -4 10 -10z"/>
<path d="M4129 241 c0 -3 -1 -36 -2 -73 l-2 -68 36 0 c19 0 40 5 47 12 19 19
15 102 -5 120 -17 15 -72 22 -74 9z m57 -33 c14 -22 11 -76 -3 -71 -7 3 -13 0
-13 -6 0 -6 -6 -8 -13 -5 -11 4 -12 14 -4 49 11 46 20 55 33 33z"/>
</g>
</svg>
